<svg xmlns="http://www.w3.org/2000/svg" xmlns:xlink="http://www.w3.org/1999/xlink" viewBox="0 0 500 500">
  <defs>
    <style>
      .cls-1 {
        fill: #fff;
      }

      .cls-2 {
        fill: url(#linear-gradient);
      }

      .cls-3 {
        fill: #f7ec00;
      }

      .cls-4 {
        fill: url(#linear-gradient-2);
      }

      .cls-5 {
        fill: #ba9912;
      }

      .cls-6 {
        fill: url(#linear-gradient-3);
      }

      .cls-7 {
        fill: #41b8ea;
      }
    </style>
    <linearGradient id="linear-gradient" x1="47.1" y1="164.95" x2="523.78" y2="400.89" gradientUnits="userSpaceOnUse">
      <stop offset="0" stop-color="#0097d6"/>
      <stop offset="0.3" stop-color="#0294d4"/>
      <stop offset="0.51" stop-color="#098bcd"/>
      <stop offset="0.69" stop-color="#147bc2"/>
      <stop offset="0.86" stop-color="#2465b2"/>
      <stop offset="1" stop-color="#364ca0"/>
    </linearGradient>
    <linearGradient id="linear-gradient-2" x1="108.36" y1="410.98" x2="397.98" y2="410.98" gradientUnits="userSpaceOnUse">
      <stop offset="0" stop-color="#2d61a1"/>
      <stop offset="1" stop-color="#364ca0"/>
    </linearGradient>
    <linearGradient id="linear-gradient-3" x1="383.2" y1="248.66" x2="495" y2="248.66" xlink:href="#linear-gradient-2"/>
  </defs>
  <title>1</title>
  <g id="blue-pail">
    <path class="cls-1" d="M494.8,145H464.6L374.5,274.9l-19.3-81.2L348,174.8l-19.8-5.3A164.9,164.9,0,0,0,163.2,50C76.9,53.3,7.2,124.1,5.1,210.4A164.7,164.7,0,0,0,109.7,368l-1,4.5,26.5,77.6H371.1l26.6-77.6-4.8-20.1ZM130.6,85c71.1-19.9,136.9,16.8,162.6,75.2l-16.9-4.5-32.7,37.9H151.1l-34.5,145c-59-25.3-96.4-91.4-76.5-162.9A131.2,131.2,0,0,1,130.6,85Z"/>
    <path class="cls-2" d="M494.8,145H464.6L374.5,274.9l-19.3-81.2L348,174.8l-19.8-5.3A164.9,164.9,0,0,0,163.2,50C76.9,53.3,7.2,124.1,5.1,210.4A164.7,164.7,0,0,0,109.7,368l-1,4.5,26.5,77.6H371.1l26.6-77.6-4.8-20.1ZM130.6,85c71.1-19.9,136.9,16.8,162.6,75.2l-16.9-4.5-32.7,37.9H151.1l-34.5,145c-59-25.3-96.4-91.4-76.5-162.9A131.2,131.2,0,0,1,130.6,85Z"/>
    <circle class="cls-3" cx="257.4" cy="322.1" r="36.9"/>
    <polygon class="cls-4" points="108.4 372.3 398 371.8 371.4 450.1 135 450.1 108.4 372.3"/>
    <g>
      <path class="cls-3" d="M261.7,276s6.3-7.1,4.9-16.7-3.1-10.3-2.4-15a16,16,0,0,1,3.3-7.8s-10.1,1.8-17.6,18.4,7.6,24.6,7.6,24.6Z"/>
      <path class="cls-3" d="M301.5,308.6s9,3.3,17.3-1.6,8.5-6.7,13-7.9a17,17,0,0,1,8.5.2s-5.4-8.7-23.6-9.5-20,16.2-20,16.2Z"/>
      <path class="cls-3" d="M253.4,368.4s-6.4,7.1-5,16.7,3.1,10.3,2.5,15a17.8,17.8,0,0,1-3.3,7.8s10-1.8,17.5-18.4-7.5-24.6-7.5-24.6Z"/>
      <path class="cls-3" d="M213.5,335.8s-8.9-3.3-17.3,1.6-8.4,6.7-13,7.9a17,17,0,0,1-8.5-.2s5.4,8.7,23.6,9.4,20.1-16.1,20.1-16.1Z"/>
      <path class="cls-3" d="M222.2,351.6s-9.5.6-15.2,8.4-5.2,9.4-9,12.3a17.1,17.1,0,0,1-7.8,3.2s8.4,5.8,25.4-.6,12.1-22.8,12.1-22.8Z"/>
      <path class="cls-3" d="M236.9,362.7s-8.6,4-11.1,13.4-1.2,10.7-3.7,14.7a17.1,17.1,0,0,1-6.1,5.9s10,2.3,23.4-10,2.8-25.6,2.8-25.6Z"/>
      <path class="cls-3" d="M292.8,292.8s9.5-.6,15.3-8.4,5.1-9.4,8.9-12.3a17.5,17.5,0,0,1,7.8-3.2s-8.3-5.8-25.4.6-12,22.7-12,22.7Z"/>
      <path class="cls-3" d="M302.8,328s7.1,6.3,16.7,4.9,10.4-3.1,15-2.4a16.4,16.4,0,0,1,7.8,3.2s-1.7-10-18.3-17.5-24.7,7.6-24.7,7.6Z"/>
      <path class="cls-3" d="M270.2,367.8s-3.2,8.9,1.7,17.3,6.7,8.5,7.8,13a16.4,16.4,0,0,1-.1,8.5s8.7-5.4,9.4-23.6-16.2-20-16.2-20Z"/>
      <path class="cls-3" d="M212.2,317.1s-7.1-6.4-16.7-5-10.3,3.1-15,2.5a17.1,17.1,0,0,1-7.8-3.3s1.8,10,18.4,17.5,24.6-7.5,24.6-7.5Z"/>
      <path class="cls-3" d="M244.8,277.2s3.3-8.9-1.6-17.3-6.7-8.4-7.9-13a17,17,0,0,1,.2-8.5s-8.7,5.4-9.5,23.6,16.2,20.1,16.2,20.1Z"/>
      <path class="cls-3" d="M228.9,285.9s-.5-9.5-8.3-15.3-9.5-5.1-12.3-8.9a17.1,17.1,0,0,1-3.2-7.8s-5.9,8.4.6,25.4,22.7,12.1,22.7,12.1Z"/>
      <path class="cls-3" d="M217.9,300.6s-4-8.6-13.4-11.1-10.7-1.2-14.7-3.7a16,16,0,0,1-5.9-6.1s-2.3,10,10,23.4,25.6,2.8,25.6,2.8Z"/>
      <path class="cls-3" d="M286.1,359.1s.5,9.5,8.3,15.3,9.5,5.1,12.3,8.9a15.9,15.9,0,0,1,3.2,7.8s5.9-8.3-.5-25.4-22.8-12.1-22.8-12.1Z"/>
      <path class="cls-3" d="M297.1,344.4s4.1,8.7,13.4,11.1,10.7,1.3,14.8,3.7a17.1,17.1,0,0,1,5.9,6.1s2.3-10-10-23.4-25.6-2.7-25.6-2.7Z"/>
      <path class="cls-3" d="M278.1,281.7s8.7-4,11.1-13.4,1.3-10.7,3.7-14.7a16.8,16.8,0,0,1,6.1-5.9s-9.9-2.3-23.4,10-2.7,25.6-2.7,25.6Z"/>
    </g>
    <path class="cls-5" d="M198.4,371.8l-.4.3a17.1,17.1,0,0,1-7.8,3.2s8.4,5.8,25.4-.6a21.8,21.8,0,0,0,5.5-2.9h6.3a21.9,21.9,0,0,0-1.6,4.1c-2.4,9.3-1.2,10.7-3.7,14.7a17.1,17.1,0,0,1-6.1,5.9s10,2.3,23.4-10c5.5-5.1,7-10.3,6.7-14.7h4.8a21.3,21.3,0,0,0-2.5,13.1c1.5,9.5,3.1,10.3,2.5,15a17.8,17.8,0,0,1-3.3,7.8s10-1.8,17.5-18.4c3.5-7.6,2.1-13.4-.3-17.5h4.5a21.7,21.7,0,0,0,2.6,13.1c4.9,8.4,6.7,8.5,7.8,13a16.4,16.4,0,0,1-.1,8.5s8.7-5.4,9.4-23.6a20.7,20.7,0,0,0-2.3-11h5.1a30.8,30.8,0,0,0,2.6,2.4c7.8,5.7,9.5,5.1,12.3,8.9a16.2,16.2,0,0,1,3.2,7.8s4.5-6.3,1.4-19.1"/>
    <polygon class="cls-6" points="480.6 145.4 495 144.9 393 352.5 383.2 320 480.6 145.4"/>
    <polygon class="cls-7" points="495 145 464.7 144.8 460.7 150.6 458.6 153.9 495 145"/>
    <g>
      <polygon class="cls-7" points="151.1 193.6 147.2 210.2 154.3 199.3 241.9 199.2 243.6 193.6 151.1 193.6"/>
      <path class="cls-7" d="M328.3,169.5h0C310.1,104.7,254.2,55.3,179.8,50L144.7,81.9c67.2-11.2,123.8,24.6,147.4,78l-15.8-4.2-32.7,38,104.5-19Z"/>
    </g>
  </g>
</svg>
