<svg xmlns="http://www.w3.org/2000/svg" viewBox="0 0 228.99 110.77">
  <defs>
    <style>
      .cls-1 {
        fill: none;
        stroke: #745fff;
        stroke-miterlimit: 10;
        stroke-width: 4px;
      }
    </style>
  </defs>
  <g id="Layer_2" data-name="Layer 2">
    <g id="Layer_1-2" data-name="Layer 1">
      <g>
        <path class="cls-1" d="M60.93,6.41c-10.07-10.07-21.87.52-21.87.52L11,35s-20.74,19.11.93,40.77L40,103.91s11.8,10.59,21.88.51"/>
        <path class="cls-1" d="M61.52,104.74c10.53-9.6.72-21.52.72-21.52L37,56.23l-.74-.75L61.18,28.11s10-12.28-.5-21.88"/>
      </g>
      <g>
        <path class="cls-1" d="M126.78,48.44,111.87,12.12s-6.82-14.32-20-8.89"/>
        <path class="cls-1" d="M102.14,58.52,85.41,23.86S79.19,9.35,92,3.16"/>
        <path class="cls-1" d="M102,58.29l15.13,36.76s6.82,14.31,20,8.89"/>
        <path class="cls-1" d="M126.37,47.49l17.25,35.82s6.13,14.53-6.7,20.73"/>
      </g>
      <g>
        <path class="cls-1" d="M168.06,6.35c10.07-10.08,21.88.51,21.88.51L218,35s20.74,19.1-.92,40.77L189,103.84s-11.8,10.59-21.88.52"/>
        <path class="cls-1" d="M167.47,104.67c-10.53-9.59-.71-21.52-.71-21.52l25.25-27,.75-.75L167.81,28s-10-12.28.5-21.88"/>
      </g>
    </g>
  </g>
</svg>
