<svg id="Layer_1" data-name="Layer 1" xmlns="http://www.w3.org/2000/svg" viewBox="0 0 500 500">
  <defs>
    <style>
      .cls-1 {
        fill: #745fff;
      }
    </style>
  </defs>
  <g>
    <path class="cls-1" d="M274.52,247.67l-.78,4.64a85.1,85.1,0,0,1,71.2,84.24V495h4.7V336.55A89.81,89.81,0,0,0,274.52,247.67Z"/>
    <path class="cls-1" d="M319.58,332.34c-3.22-1.2-7.81.23-19.41,18.9-11.89,19.14-25.31,23-34.34,22.79-10-.18-17.94-5-21.38-8.5h.07c7.59,0,17-5.54,22.31-36.19,2.69-15.4,8.31-25.12,16.71-28.89,12-5.38,26.07,3.19,26.21,3.28l2.48-4c-.66-.41-16.3-9.95-30.58-3.59-6.54,2.93-11.58,8.71-15.13,17.16l-.25-.81a54.63,54.63,0,0,1-64.43-27.3l-4.17,2.15a59.06,59.06,0,0,0,67.19,30.38,78.27,78.27,0,0,0-2.66,10.8c-4.13,23.62-10.38,30.21-15,31.83-21.85.82-44.54-11.73-54-30.06L189,332.44c8.92,17.33,28.65,29.88,49.22,32.24a13.51,13.51,0,0,0,.66,1.32c2.94,5.15,13.79,12.38,26.58,12.71a16.82,16.82,0,0,1,3.47,5.08A11.76,11.76,0,0,1,263.24,399a54.65,54.65,0,0,1-73.44-23.65l-4.18,2.15a59.43,59.43,0,0,0,52.87,32.17,58.68,58.68,0,0,0,14.82-1.95,14.8,14.8,0,0,1,13.39,8.58,14,14,0,0,1,.26,11.14,15.33,15.33,0,0,1-7.84,8.24,54.73,54.73,0,0,1-73.6-23.59l-4.17,2.16a59.41,59.41,0,0,0,52.87,32.17,58.57,58.57,0,0,0,15.63-2.2l0,.08a12,12,0,0,1,9.44,2.61,14.35,14.35,0,0,1,5.23,8.88,13.56,13.56,0,0,1-1.56,9.39,10,10,0,0,1-5,4c-23.18,6.63-50,.9-71.7-15.38-20.44-15.32-32.65-37.33-32.65-58.89V336.55a85.44,85.44,0,0,1,69.5-83.94l-.87-4.62A90.13,90.13,0,0,0,149,336.55v58.39c0,23,12.91,46.44,34.53,62.65,16.61,12.44,36.06,19,54.87,19a76.77,76.77,0,0,0,17.87-2.12v0a17.29,17.29,0,0,0,3.38-.9l.14,0v0a14.61,14.61,0,0,0,7.2-5.85,18.24,18.24,0,0,0,2.23-12.64,19.11,19.11,0,0,0-6.95-11.82,18,18,0,0,0-3.65-2.19c.82-.37,1.64-.67,2.45-1.08v0s.08-.06.13-.08l.15-.06v0a20.07,20.07,0,0,0,10-10.64,18.65,18.65,0,0,0-.36-14.85,19.51,19.51,0,0,0-9.44-9.46c1.18-.5,2.37-1,3.53-1.55v0l.23-.14.29-.13,0,0c7.72-3.92,11.24-13.49,7.66-21.27a26.77,26.77,0,0,0-1.93-3.44c9.76-1.36,22-7.17,32.86-24.66,10.41-16.75,13.74-17,13.67-17,1,.93,1.16,7,.26,12.47l4.64.76C323.67,344.15,324.52,334.2,319.58,332.34Z"/>
    <rect class="cls-1" x="265.57" y="106.94" width="4.7" height="182.55"/>
    <rect class="cls-1" x="227.17" y="106.94" width="4.7" height="182.55"/>
    <path class="cls-1" d="M249.82,94.71h.74a26.21,26.21,0,0,0,23.57-13.6c3.4-6.07,4.1-11.9,2.06-17.3-4.07-10.83-17.71-15.77-18.45-16-22.56-6.22-25.56-33.08-25.92-38,.48-.7,1-1.39,1.46-2.09L229.46,5c-23.82,33.43-18.25,56.65-12.81,67.51C223.24,85.68,236.26,94.4,249.82,94.71ZM227.89,16c1.89,10.66,8.12,30.72,28.44,36.32.12,0,12.18,4.43,15.47,13.22,1.52,4.05.92,8.53-1.78,13.34C265.86,86.25,258.6,90.18,249.93,90c-11.84-.28-23.26-8-29.09-19.61C216.33,61.38,211.79,42.9,227.89,16Z"/>
    <path class="cls-1" d="M395.8,118.74a45.19,45.19,0,0,1,22.53,20.56L307,250.65l3.32,3.33L447.24,117l-.38-1.34c-5.58-19.2-25.52-26.15-26.37-26.44l-1.38-.46L283.72,224.17l3.32,3.32Zm3.59-3.6,3.12-3.12a45.65,45.65,0,0,1,22,21.12l-2.69,2.69A49.64,49.64,0,0,0,399.39,115.14Zm20.92-20.91c4.18,1.78,17.09,8.2,21.62,21.47L428,129.64a49.83,49.83,0,0,0-21.92-21.17Z"/>
    <polygon class="cls-1" points="190.54 252.54 56.24 118.23 77.78 96.68 210.47 229.37 213.79 226.05 77.78 90.04 49.59 118.23 187.22 255.86 190.54 252.54"/>
    <rect class="cls-1" x="63.11" y="114.96" width="12.59" height="4.7" transform="translate(-62.62 83.44) rotate(-45)"/>
    <rect class="cls-1" x="73.81" y="125.66" width="12.59" height="4.7" transform="translate(-67.05 94.13) rotate(-45)"/>
    <rect class="cls-1" x="84.51" y="136.36" width="12.59" height="4.7" transform="translate(-71.48 104.83) rotate(-45)"/>
    <rect class="cls-1" x="94.2" y="144.63" width="19.44" height="4.7" transform="translate(-73.49 116.53) rotate(-45)"/>
    <rect class="cls-1" x="105.9" y="157.75" width="12.59" height="4.7" transform="translate(-80.35 126.23) rotate(-45)"/>
    <rect class="cls-1" x="116.6" y="168.45" width="12.59" height="4.7" transform="translate(-84.78 136.93) rotate(-45)"/>
    <rect class="cls-1" x="127.3" y="179.15" width="12.59" height="4.7" transform="translate(-89.21 147.63) rotate(-45)"/>
    <rect class="cls-1" x="136.99" y="187.43" width="19.44" height="4.7" transform="translate(-91.22 159.33) rotate(-45)"/>
    <rect class="cls-1" x="148.7" y="200.55" width="12.59" height="4.7" transform="translate(-98.07 169.02) rotate(-45)"/>
    <rect class="cls-1" x="159.39" y="211.25" width="12.59" height="4.7" transform="translate(-102.5 179.72) rotate(-45)"/>
    <rect class="cls-1" x="170.09" y="221.94" width="12.59" height="4.7" transform="translate(-106.94 190.42) rotate(-45)"/>
    <rect class="cls-1" x="179.79" y="230.22" width="19.44" height="4.7" transform="translate(-108.95 202.12) rotate(-45)"/>
    <rect class="cls-1" x="269.4" y="177.47" width="155.68" height="4.7" transform="translate(-25.45 298.2) rotate(-45)"/>
    <rect class="cls-1" x="276.51" y="185.54" width="157.84" height="4.7" transform="translate(-28.75 306.36) rotate(-45)"/>
  </g>
</svg>
