<svg xmlns="http://www.w3.org/2000/svg" xmlns:xlink="http://www.w3.org/1999/xlink" viewBox="0 0 500 500">
  <defs>
    <style>
      .cls-1 {
        fill: url(#radial-gradient);
      }

      .cls-2 {
        fill: url(#linear-gradient);
      }

      .cls-3 {
        fill: url(#linear-gradient-2);
      }

      .cls-4 {
        fill: url(#linear-gradient-3);
      }

      .cls-5 {
        fill: url(#linear-gradient-4);
      }

      .cls-6 {
        fill: #2d282d;
      }

      .cls-7 {
        fill: #343a35;
      }

      .cls-8 {
        fill: #2d2e33;
      }

      .cls-9 {
        fill: #416eb2;
      }

      .cls-10 {
        fill: #fff7c5;
      }

      .cls-11 {
        fill: #4b4c97;
      }
    </style>
    <radialGradient id="radial-gradient" cx="1454.9" cy="-645.72" fx="1861.252453869806" fy="-283.4833937514642" r="788.22" gradientTransform="translate(-1204.9 1078) scale(1 1.28)" gradientUnits="userSpaceOnUse">
      <stop offset="0.29" stop-color="#e7c432"/>
      <stop offset="0.37" stop-color="#db9352"/>
      <stop offset="0.45" stop-color="#d0696e"/>
      <stop offset="0.53" stop-color="#c84a82"/>
      <stop offset="0.59" stop-color="#c4388e"/>
      <stop offset="0.63" stop-color="#c23192"/>
    </radialGradient>
    <linearGradient id="linear-gradient" x1="44.95" y1="717.32" x2="622.34" y2="717.32" gradientTransform="translate(0 -309.2) scale(1 0.78)" gradientUnits="userSpaceOnUse">
      <stop offset="0.07" stop-color="#416eb2"/>
      <stop offset="0.55" stop-color="#d7e2e0"/>
    </linearGradient>
    <linearGradient id="linear-gradient-2" x1="243.97" y1="251.23" x2="455.05" y2="251.23" gradientUnits="userSpaceOnUse">
      <stop offset="0.18" stop-color="#fffbca"/>
      <stop offset="0.34" stop-color="#f0f1d0" stop-opacity="0.97"/>
      <stop offset="0.58" stop-color="#dfe5d8" stop-opacity="0.94"/>
      <stop offset="0.81" stop-color="#d5dedc" stop-opacity="0.93"/>
      <stop offset="1" stop-color="#d1dbde" stop-opacity="0.92"/>
    </linearGradient>
    <linearGradient id="linear-gradient-3" x1="49.8" y1="332.37" x2="332.28" y2="332.37" gradientUnits="userSpaceOnUse">
      <stop offset="0.36" stop-color="#3b51a3"/>
      <stop offset="0.6" stop-color="#595eaa"/>
      <stop offset="0.99" stop-color="#8672b4"/>
    </linearGradient>
    <linearGradient id="linear-gradient-4" x1="62.47" y1="110.37" x2="378.57" y2="226.48" gradientUnits="userSpaceOnUse">
      <stop offset="0.41" stop-color="#246fb3"/>
      <stop offset="0.51" stop-color="#2c74b4"/>
      <stop offset="0.67" stop-color="#4181b6"/>
      <stop offset="0.86" stop-color="#6497ba"/>
      <stop offset="0.99" stop-color="#80a9bd"/>
    </linearGradient>
  </defs>
  <title>1</title>
  <g id="dice-roll-logo">
    <rect class="cls-1" x="5" y="5" width="490" height="490" transform="translate(500 0) rotate(90)"/>
    <path class="cls-2" d="M444.8,281.2,356.1,406.1A28.5,28.5,0,0,1,331,417.9L174.4,406.2c-8-.6-26.5-3.8-31.4-10L51,263.6a28.1,28.1,0,0,1-.8-33.8L154.4,104.4c5.2-7.3,3.9-18.7,12.9-18.8l184.3-3.2A28.3,28.3,0,0,1,377.8,99l69.7,154.2A28.1,28.1,0,0,1,444.8,281.2Z"/>
    <path class="cls-3" d="M440.5,227.7c19.3,35,19.7,35.8-.7,64.5L360.6,398.6c-14.6,16-15.1,16-37.9-16.5l-69.3-107c-13.2-25-13.4-26,5-48.2L360.1,102.5c11.7-13.8,13-12.8,23.3,9Z"/>
    <path class="cls-4" d="M248,275.9c-16.2-25.3-16.6-25.8-37.2-26.7L72.6,247.8c-25.9,0-25.9,4.2-18.7,20l83.8,124c12.6,17.2,13.9,17.6,36.8,18.9L319.1,417c18.4,0,17.6-3.4-2.7-33Z"/>
    <path class="cls-5" d="M153,94.4c11.7-12,12.6-12,38-12H347.9c13.5-.3,14.8,7.1,8.9,14.5L247.1,230.5c-9.2,11.5-13.7,13-28.7,13L58.7,242.4c-11.2-.8-13.7-4-5.6-17.8Z"/>
    <ellipse class="cls-6" cx="257.7" cy="377.7" rx="13.7" ry="18.3" transform="translate(-140.9 153.6) rotate(-26.3)"/>
    <ellipse class="cls-7" cx="338.9" cy="337.4" rx="20.2" ry="16.5" transform="translate(-126.2 448.7) rotate(-58.3)"/>
    <ellipse class="cls-6" cx="177.6" cy="376.6" rx="13.7" ry="18.3" transform="translate(-148.7 117.9) rotate(-26.3)"/>
    <ellipse class="cls-6" cx="199.9" cy="286.7" rx="13.7" ry="18.3" transform="translate(-106.5 118.5) rotate(-26.3)"/>
    <ellipse class="cls-6" cx="120.9" cy="287.9" rx="13.7" ry="18.3" transform="translate(-115.2 83.5) rotate(-26.3)"/>
    <ellipse class="cls-7" cx="298.2" cy="264.8" rx="20.2" ry="16.5" transform="translate(-83.7 379.5) rotate(-58.3)"/>
    <ellipse class="cls-7" cx="339.2" cy="216.7" rx="20.2" ry="16.5" transform="translate(-23.3 391.6) rotate(-58.3)"/>
    <ellipse class="cls-7" cx="377.5" cy="290" rx="20.2" ry="16.5" transform="matrix(0.53, -0.85, 0.85, 0.53, -67.54, 459.08)"/>
    <ellipse class="cls-7" cx="414.7" cy="247.8" rx="20.2" ry="16.5" transform="translate(-13.9 470.6) rotate(-58.3)"/>
    <ellipse class="cls-7" cx="373.1" cy="174.6" rx="20.2" ry="16.5" transform="translate(28.6 400.5) rotate(-58.3)"/>
    <ellipse class="cls-8" cx="129.3" cy="192.1" rx="20.3" ry="12.1" transform="translate(-97.9 147.7) rotate(-45)"/>
    <ellipse class="cls-8" cx="265.8" cy="121.6" rx="20.3" ry="12.1" transform="translate(-8.2 223.6) rotate(-45)"/>
    <ellipse class="cls-9" cx="269.1" cy="123.9" rx="7.6" ry="4.6" transform="translate(-8.7 226.6) rotate(-45)"/>
    <ellipse class="cls-9" cx="133.4" cy="194.4" rx="7.6" ry="4.6" transform="translate(-98.4 151.3) rotate(-45)"/>
    <ellipse class="cls-10" cx="292.1" cy="256.4" rx="5.6" ry="3.4" transform="translate(-93.4 305.4) rotate(-48.5)"/>
    <ellipse class="cls-11" cx="205.5" cy="285.6" rx="4.6" ry="7.6" transform="translate(-105.4 120.9) rotate(-26.3)"/>
    <ellipse class="cls-11" cx="263.7" cy="376.6" rx="4.6" ry="7.6" transform="translate(-139.7 156.1) rotate(-26.3)"/>
    <ellipse class="cls-11" cx="183.7" cy="374.2" rx="4.6" ry="7.6" transform="translate(-147 120.4) rotate(-26.3)"/>
    <ellipse class="cls-11" cx="127.4" cy="286.7" rx="4.6" ry="7.6" transform="translate(-114 86.3) rotate(-26.3)"/>
    <ellipse class="cls-10" cx="332.3" cy="208.1" rx="5.6" ry="3.4" transform="translate(-43.7 319.2) rotate(-48.5)"/>
    <ellipse class="cls-10" cx="368" cy="165.4" rx="5.6" ry="3.4" transform="translate(0.4 331.5) rotate(-48.5)"/>
    <ellipse class="cls-10" cx="332.3" cy="328.6" rx="5.6" ry="3.4" transform="translate(-134 359.9) rotate(-48.5)"/>
    <ellipse class="cls-10" cx="371.5" cy="281" rx="5.6" ry="3.4" transform="translate(-85.1 373.1) rotate(-48.5)"/>
    <ellipse class="cls-10" cx="409.3" cy="238.9" rx="5.6" ry="3.4" transform="translate(-40.8 387.2) rotate(-48.5)"/>
  </g>
</svg>
