<svg xmlns="http://www.w3.org/2000/svg" viewBox="0 0 214.01 252.19">
  <defs>
    <style>
      .cls-1 {
        fill: none;
        stroke: #745fff;
        stroke-miterlimit: 10;
        stroke-width: 4px;
      }
    </style>
  </defs>
  <g id="Layer_2" data-name="Layer 2">
    <g id="Layer_1-2" data-name="Layer 1">
      <g>
        <path class="cls-1" d="M116.71,191.26a9,9,0,0,1,2.51,3.3,7.16,7.16,0,0,1-3.74,9.48"/>
        <g>
          <path class="cls-1" d="M120.84,126.34c22.14,3.57,39,22.12,39,44.46v81.39"/>
          <path class="cls-1" d="M55.35,190.16V170.8c0-22,16.4-40.37,38.07-44.3"/>
          <path class="cls-1" d="M117,159.6c-13.77,4-29-1.85-35.83-14.63"/>
          <path class="cls-1" d="M106.85,184.23c-11.54.54-24.64-5.55-30.27-16.09"/>
          <path class="cls-1" d="M74.76,191.3c7.69,14.38,26,20,40.95,12.62"/>
          <path class="cls-1" d="M113.43,222.8c-14.92,7.41-33.26,1.76-40.95-12.62"/>
          <path class="cls-1" d="M140.5,152.92s-20.07-12-24.79,14-15.07,14.21-12.56,18.44,19.77,13.61,32.64-6.35,9.73-1.51,9.73-1.51"/>
          <line class="cls-1" x1="117.53" y1="146.63" x2="117.53" y2="52.86"/>
          <line class="cls-1" x1="97.05" y1="52.86" x2="97.05" y2="146.63"/>
          <path class="cls-1" d="M97,2.61s.51,17.23,14.77,21c0,0,14.11,4.82,8,15.37-10,17.23-48-2.21-21.7-37.81"/>
          <path class="cls-1" d="M126.84,113.92l71.64-69s10.44,3.4,13.26,12.78l-72.5,69.84"/>
          <path class="cls-1" d="M112.82,240.05c-26.7,7.53-57.47-14.36-57.47-39.26v-13.7"/>
          <path class="cls-1" d="M109.71,206.17a9.16,9.16,0,0,1,8.31,5.11c2.11,4.4-.11,9.54-4.69,11.57"/>
          <path class="cls-1" d="M107.7,225a8.34,8.34,0,0,1,9.26,6.9c.72,4.29-1.46,7.93-5.86,8.61"/>
          <polyline class="cls-1" points="87.78 114.89 16.14 45.88 2.88 58.65 75.39 128.5"/>
          <line class="cls-1" x1="9.3" y1="60.47" x2="14.05" y2="55.89"/>
          <line class="cls-1" x1="15" y1="65.96" x2="19.75" y2="61.39"/>
          <line class="cls-1" x1="20.71" y1="71.46" x2="25.46" y2="66.88"/>
          <line class="cls-1" x1="26.41" y1="76.95" x2="33.75" y2="69.89"/>
          <line class="cls-1" x1="32.12" y1="82.45" x2="36.87" y2="77.88"/>
          <line class="cls-1" x1="37.82" y1="87.95" x2="42.57" y2="83.37"/>
          <line class="cls-1" x1="43.53" y1="93.44" x2="48.28" y2="88.87"/>
          <line class="cls-1" x1="49.23" y1="98.94" x2="56.56" y2="91.87"/>
          <line class="cls-1" x1="54.94" y1="104.43" x2="59.69" y2="99.86"/>
          <line class="cls-1" x1="60.64" y1="109.93" x2="65.39" y2="105.35"/>
          <line class="cls-1" x1="66.35" y1="115.42" x2="71.1" y2="110.85"/>
          <line class="cls-1" x1="72.05" y1="120.92" x2="79.38" y2="113.86"/>
          <path class="cls-1" d="M189,54.05a24.74,24.74,0,0,1,13.55,12.5"/>
          <path class="cls-1" d="M186,57.72a24.74,24.74,0,0,1,13.55,12.5"/>
          <line class="cls-1" x1="189.17" y1="62.02" x2="130.47" y2="118.57"/>
          <line class="cls-1" x1="193.95" y1="65.77" x2="134.43" y2="123.1"/>
        </g>
      </g>
    </g>
  </g>
</svg>
