<svg xmlns="http://www.w3.org/2000/svg" xmlns:xlink="http://www.w3.org/1999/xlink" viewBox="0 0 500 500">
  <defs>
    <style>
      .cls-1 {
        fill: url(#linear-gradient);
      }

      .cls-2 {
        fill: #fff;
      }
    </style>
    <linearGradient id="linear-gradient" x1="250" y1="-4.91" x2="250" y2="521.03" gradientUnits="userSpaceOnUse">
      <stop offset="0.09" stop-color="#008ed4"/>
      <stop offset="0.14" stop-color="#0387cf"/>
      <stop offset="0.38" stop-color="#1565b3"/>
      <stop offset="0.61" stop-color="#214da0"/>
      <stop offset="0.82" stop-color="#283e94"/>
      <stop offset="1" stop-color="#2b3990"/>
    </linearGradient>
  </defs>
  <title>1</title>
  <g id="text-to-clip-icon">
    <rect class="cls-1" x="5" y="5" width="490" height="490"/>
    <g>
      <path class="cls-2" d="M365.8,63h-77a36.7,36.7,0,0,0-71.5,0H134.4A36.4,36.4,0,0,0,98,99.4V410.6A36.5,36.5,0,0,0,134.4,447H365.8a36.5,36.5,0,0,0,36.4-35.5h0V99.4A36.4,36.4,0,0,0,365.8,63ZM253.1,51.3A20.2,20.2,0,0,1,271.3,63H234.8A20.2,20.2,0,0,1,253.1,51.3ZM365.8,429.5H134.4a18.9,18.9,0,0,1-18.9-18.9V99.4a18.9,18.9,0,0,1,18.9-18.9H365.8a18.9,18.9,0,0,1,18.9,18.9V410.6A18.9,18.9,0,0,1,365.8,429.5Z"/>
      <path class="cls-2" d="M355.9,337.4H143.2a9.1,9.1,0,1,0,0,18.1H355.9a9.1,9.1,0,1,0,0-18.1Z"/>
      <rect class="cls-2" x="134.1" y="377" width="122.6" height="18.48" rx="8.8"/>
      <path class="cls-2" d="M185.8,132.7c5.1-9.1,9.9-10.9,26.5-10.9h27.5V268.7c0,23.8-2.4,26.9-30.5,28.7v8.4h87.8v-8.4c-28.7-1.8-31.1-5.2-31.1-28.7V121.8h30.2c16.6,0,19.6,2.1,24.4,10.3,3.3,5.4,7,15.3,9.7,25l9-.9c-1.5-17.5-2.7-39.2-2.7-53.4h-7.2c-4.5,5.7-7,6.9-15.4,6.9H194.5c-8.4,0-11.7.3-16.3-6.9h-6.9c-.9,16.9-2.7,35.9-4.5,54.3h9C179.7,145.9,182.2,138.7,185.8,132.7Z"/>
    </g>
  </g>
</svg>
