<svg id="Layer_1" data-name="Layer 1" xmlns="http://www.w3.org/2000/svg" viewBox="0 0 1920 250">
  <defs>
    <style>
      .cls-1 {
        fill: #745fff;
      }
    </style>
  </defs>
  <path class="cls-1" d="M0,42.22s96.37-1.4,96.37,65.07,103,61.2,103,61.2h0s103.05,5.28,103.05-61.19,96.37-65.07,96.37-65.07h-.21S495,40.82,495,107.3s103,61.19,103,61.19,103.05,5.28,103.05-61.19,96.37-65.07,96.37-65.07h0s96.37-1.4,96.37,65.07,103.05,61.2,103.05,61.2h-.21s103.05,5.28,103.05-61.19,96.37-65.07,96.37-65.07,96.37-1.41,96.37,65.07,103,61.19,103,61.19,103,5.28,103-61.19,96.36-65.07,96.36-65.07V144.4s-96.36-1.41-96.36,65.06-103,61.2-103,61.2-103,5.28-103-61.2-96.37-65.06-96.37-65.06-96.37-1.41-96.37,65.06-103.05,61.2-103.05,61.2h.21S893.8,275.93,893.8,209.46s-96.37-65.07-96.37-65.07h0s-96.37-1.41-96.37,65.06S598,270.65,598,270.65s-103,5.28-103-61.2-96.36-65.06-96.36-65.06h.21s-96.37-1.41-96.37,65.06-103.05,61.2-103.05,61.2h0s-103,5.28-103-61.19S0,144.38,0,144.38"/>
  <!-- <path class="cls-1" d="M1594.89,42.22s96.37-1.4,96.37,65.07,103,61.2,103,61.2h0s103,5.28,103-61.19,96.37-65.07,96.37-65.07h-.21s96.37-1.41,96.37,65.07,103.05,61.19,103.05,61.19,103,5.28,103-61.19,96.36-65.07,96.36-65.07h0s96.36-1.4,96.36,65.07,103,61.2,103,61.2h-.21s103,5.28,103-61.19S2791,42.24,2791,42.24s96.37-1.41,96.37,65.07,103,61.19,103,61.19,103.05,5.28,103.05-61.19,96.37-65.07,96.37-65.07V144.4s-96.37-1.41-96.37,65.06-103.05,61.2-103.05,61.2-103,5.28-103-61.2S2791,144.4,2791,144.4s-96.37-1.41-96.37,65.06-103,61.2-103,61.2h.21s-103,5.28-103-61.19-96.36-65.07-96.36-65.07h0S2296,143,2296,209.45s-103,61.2-103,61.2-103.05,5.28-103.05-61.2-96.37-65.06-96.37-65.06h.21s-96.37-1.41-96.37,65.06-103,61.2-103,61.2h0s-103,5.28-103-61.19-96.37-65.07-96.37-65.07"/> -->
</svg>
