<svg id="Layer_1" data-name="Layer 1" xmlns="http://www.w3.org/2000/svg" viewBox="0 0 1920 700">
  <defs>
    <style>
      .cls-1, .cls-2, .cls-3, .cls-4 {
        fill: none;
        stroke-miterlimit: 10;
      }

      .cls-1 {
        stroke: #745fff;
      }

      .cls-2 {
        stroke: #d5d2ff;
      }

      .cls-3 {
        stroke: #b8b3ff;
      }

      .cls-4 {
        stroke: #9088ff;
      }
    </style>
  </defs>
  <g>
    <path class="cls-1" d="M.48,380.71s96.37-1.41,96.37,65.06S199.9,507,199.9,507"/>
    <path class="cls-1" d="M.48,414.67s96.37-1.41,96.37,65.07S199.9,540.93,199.9,540.93"/>
    <path class="cls-1" d="M.48,449.84s96.37-1.41,96.37,65.07S199.9,576.1,199.9,576.1"/>
    <path class="cls-1" d="M399.27,380.71s-96.36-1.4-96.36,65.07-103,61.2-103,61.2"/>
    <path class="cls-1" d="M399.11,414.68s-96.37-1.41-96.37,65.06-103,61.2-103,61.2"/>
    <path class="cls-1" d="M399.11,449.85s-96.37-1.41-96.37,65.06-103,61.2-103,61.2"/>
    <path class="cls-1" d="M399.24,380.71s96.36-1.4,96.36,65.07,103,61.2,103,61.2"/>
    <path class="cls-1" d="M399.11,414.68s96.37-1.41,96.37,65.06,103,61.2,103,61.2"/>
    <path class="cls-1" d="M399.11,449.85s96.37-1.41,96.37,65.06,103,61.2,103,61.2"/>
    <path class="cls-1" d="M798,380.71s-96.37-1.4-96.37,65.07-103,61.2-103,61.2"/>
    <path class="cls-1" d="M797.94,414.68s-96.36-1.41-96.36,65.06-103.05,61.2-103.05,61.2"/>
    <path class="cls-1" d="M797.94,449.85s-96.36-1.41-96.36,65.06-103.05,61.2-103.05,61.2"/>
    <path class="cls-2" d="M0,274.61s96.37-1.41,96.37,65.07,103,61.19,103,61.19"/>
    <path class="cls-3" d="M0,308.57s96.37-1.4,96.37,65.07,103,61.2,103,61.2"/>
    <path class="cls-4" d="M0,343.75s96.37-1.41,96.37,65.06,103,61.2,103,61.2"/>
    <path class="cls-2" d="M398.79,274.62s-96.37-1.41-96.37,65.06-103,61.2-103,61.2"/>
    <path class="cls-3" d="M398.63,308.58s-96.37-1.4-96.37,65.07-103,61.2-103,61.2"/>
    <path class="cls-4" d="M398.63,343.75s-96.37-1.4-96.37,65.07-103,61.2-103,61.2"/>
    <path class="cls-2" d="M398.79,274.62s96.37-1.41,96.37,65.06,103.05,61.2,103.05,61.2"/>
    <path class="cls-3" d="M398.63,308.58S495,307.18,495,373.65s103,61.2,103,61.2"/>
    <path class="cls-4" d="M398.63,343.75S495,342.35,495,408.82,598,470,598,470"/>
    <path class="cls-2" d="M797.63,274.62s-96.37-1.41-96.37,65.06-103,61.2-103,61.2"/>
    <path class="cls-3" d="M797.46,308.58s-96.37-1.4-96.37,65.07S598,434.85,598,434.85"/>
    <path class="cls-4" d="M797.46,343.75s-96.37-1.4-96.37,65.07S598,470,598,470"/>
  </g>
  <g>
    <path class="cls-1" d="M797.92,380.72s96.36-1.41,96.36,65.06S997.33,507,997.33,507"/>
    <path class="cls-1" d="M797.92,414.68s96.36-1.41,96.36,65.07,103.05,61.19,103.05,61.19"/>
    <path class="cls-1" d="M797.92,449.85s96.36-1.41,96.36,65.07,103.05,61.19,103.05,61.19"/>
    <path class="cls-1" d="M1196.71,380.72s-96.37-1.4-96.37,65.07-103,61.2-103,61.2"/>
    <path class="cls-1" d="M1196.54,414.69s-96.37-1.41-96.37,65.06S997.12,541,997.12,541"/>
    <path class="cls-1" d="M1196.54,449.86s-96.37-1.41-96.37,65.06-103.05,61.2-103.05,61.2"/>
    <path class="cls-1" d="M1196.67,380.72s96.37-1.4,96.37,65.07,103,61.2,103,61.2"/>
    <path class="cls-1" d="M1196.54,414.69s96.37-1.41,96.37,65.06S1396,541,1396,541"/>
    <path class="cls-1" d="M1196.54,449.86s96.37-1.41,96.37,65.06,103,61.2,103,61.2"/>
    <path class="cls-1" d="M1595.46,380.72s-96.36-1.4-96.36,65.07-103,61.2-103,61.2"/>
    <path class="cls-1" d="M1595.38,414.69S1499,413.28,1499,479.75,1396,541,1396,541"/>
    <path class="cls-1" d="M1595.38,449.86S1499,448.45,1499,514.92s-103,61.2-103,61.2"/>
    <path class="cls-2" d="M797.43,274.62s96.37-1.41,96.37,65.07,103.05,61.19,103.05,61.19"/>
    <path class="cls-3" d="M797.43,308.58s96.37-1.4,96.37,65.07,103.05,61.2,103.05,61.2"/>
    <path class="cls-4" d="M797.43,343.76s96.37-1.41,96.37,65.06S996.85,470,996.85,470"/>
    <path class="cls-2" d="M1196.22,274.63s-96.36-1.41-96.36,65.06-103,61.2-103,61.2"/>
    <path class="cls-3" d="M1196.06,308.59s-96.37-1.4-96.37,65.07-103.05,61.2-103.05,61.2"/>
    <path class="cls-4" d="M1196.06,343.76s-96.37-1.4-96.37,65.07S996.64,470,996.64,470"/>
    <path class="cls-2" d="M1196.22,274.63s96.37-1.41,96.37,65.06,103.05,61.2,103.05,61.2"/>
    <path class="cls-3" d="M1196.06,308.59s96.37-1.4,96.37,65.07,103,61.2,103,61.2"/>
    <path class="cls-4" d="M1196.06,343.76s96.37-1.4,96.37,65.07,103,61.2,103,61.2"/>
    <path class="cls-2" d="M1595.06,274.63s-96.37-1.41-96.37,65.06-103,61.2-103,61.2"/>
    <path class="cls-3" d="M1594.89,308.59s-96.36-1.4-96.36,65.07-103,61.2-103,61.2"/>
    <path class="cls-4" d="M1594.89,343.76s-96.36-1.4-96.36,65.07-103,61.2-103,61.2"/>
  </g>
  <g>
    <path class="cls-1" d="M1595.35,380.72s96.37-1.4,96.37,65.07,103,61.2,103,61.2"/>
    <path class="cls-1" d="M1595.35,414.69s96.37-1.41,96.37,65.06,103,61.2,103,61.2"/>
    <path class="cls-1" d="M1595.35,449.86s96.37-1.41,96.37,65.06,103,61.2,103,61.2"/>
    <path class="cls-1" d="M1994.14,380.73s-96.36-1.41-96.36,65.07-103,61.19-103,61.19"/>
    <path class="cls-1" d="M1994,414.69s-96.37-1.4-96.37,65.07-103,61.2-103,61.2"/>
    <path class="cls-1" d="M1994,449.87s-96.37-1.41-96.37,65.06-103,61.2-103,61.2"/>
    <path class="cls-2" d="M1594.87,274.63s96.37-1.41,96.37,65.06,103,61.2,103,61.2"/>
    <path class="cls-3" d="M1594.87,308.59s96.37-1.41,96.37,65.07,103,61.19,103,61.19"/>
    <path class="cls-4" d="M1594.87,343.76s96.37-1.4,96.37,65.07,103,61.19,103,61.19"/>
    <path class="cls-2" d="M1993.66,274.64s-96.37-1.41-96.37,65.06-103,61.2-103,61.2"/>
    <path class="cls-3" d="M1993.49,308.6s-96.36-1.41-96.36,65.06-103.05,61.2-103.05,61.2"/>
    <path class="cls-4" d="M1993.49,343.77s-96.36-1.41-96.36,65.07S1794.08,470,1794.08,470"/>
  </g>
  <g>
    <path class="cls-1" d="M.74,113.07s96.37-1.41,96.37,65.07,103.05,61.19,103.05,61.19"/>
    <path class="cls-1" d="M.74,147s96.37-1.4,96.37,65.07,103.05,61.2,103.05,61.2"/>
    <path class="cls-1" d="M.74,182.2s96.37-1.4,96.37,65.07,103.05,61.2,103.05,61.2"/>
    <path class="cls-1" d="M399.53,113.08s-96.37-1.41-96.37,65.06-103,61.2-103,61.2"/>
    <path class="cls-1" d="M399.36,147S303,145.63,303,212.11,200,273.3,200,273.3"/>
    <path class="cls-1" d="M399.36,182.21S303,180.8,303,247.28s-103,61.19-103,61.19"/>
    <path class="cls-1" d="M399.49,113.08s96.37-1.41,96.37,65.06,103,61.2,103,61.2"/>
    <path class="cls-1" d="M399.36,147s96.37-1.41,96.37,65.07,103,61.19,103,61.19"/>
    <path class="cls-1" d="M399.36,182.21s96.37-1.41,96.37,65.07,103,61.19,103,61.19"/>
    <path class="cls-1" d="M798.29,113.08s-96.37-1.41-96.37,65.06-103,61.2-103,61.2"/>
    <path class="cls-1" d="M798.2,147s-96.37-1.41-96.37,65.07S598.78,273.3,598.78,273.3"/>
    <path class="cls-1" d="M798.2,182.21s-96.37-1.41-96.37,65.07-103.05,61.19-103.05,61.19"/>
    <path class="cls-2" d="M.26,7S96.62,5.57,96.62,72s103,61.2,103,61.2"/>
    <path class="cls-3" d="M.26,40.94S96.62,39.53,96.62,106s103,61.2,103,61.2"/>
    <path class="cls-4" d="M.26,76.11s96.36-1.41,96.36,65.06,103,61.2,103,61.2"/>
    <path class="cls-2" d="M399.05,7s-96.37-1.41-96.37,65.07-103,61.19-103,61.19"/>
    <path class="cls-3" d="M398.88,41S302.51,39.54,302.51,106s-103,61.2-103,61.2"/>
    <path class="cls-4" d="M398.88,76.12s-96.37-1.41-96.37,65.06-103,61.2-103,61.2"/>
    <path class="cls-2" d="M399.05,7s96.37-1.41,96.37,65.07,103.05,61.19,103.05,61.19"/>
    <path class="cls-3" d="M398.88,41s96.37-1.41,96.37,65.06,103,61.2,103,61.2"/>
    <path class="cls-4" d="M398.88,76.12s96.37-1.41,96.37,65.06,103,61.2,103,61.2"/>
    <path class="cls-2" d="M797.88,7s-96.36-1.41-96.36,65.07-103,61.19-103,61.19"/>
    <path class="cls-3" d="M797.72,41S701.35,39.54,701.35,106s-103.05,61.2-103.05,61.2"/>
    <path class="cls-4" d="M797.72,76.12s-96.37-1.41-96.37,65.06-103.05,61.2-103.05,61.2"/>
  </g>
  <g>
    <path class="cls-1" d="M798.17,113.08s96.37-1.41,96.37,65.07,103.05,61.19,103.05,61.19"/>
    <path class="cls-1" d="M798.17,147s96.37-1.4,96.37,65.07,103.05,61.2,103.05,61.2"/>
    <path class="cls-1" d="M798.17,182.21s96.37-1.4,96.37,65.07,103.05,61.2,103.05,61.2"/>
    <path class="cls-1" d="M1197,113.09s-96.36-1.41-96.36,65.06-103,61.2-103,61.2"/>
    <path class="cls-1" d="M1196.8,147.05s-96.37-1.41-96.37,65.07-103.05,61.19-103.05,61.19"/>
    <path class="cls-1" d="M1196.8,182.22s-96.37-1.41-96.37,65.07-103.05,61.19-103.05,61.19"/>
    <path class="cls-1" d="M1196.92,113.09s96.37-1.41,96.37,65.06,103,61.2,103,61.2"/>
    <path class="cls-1" d="M1196.8,147.05s96.36-1.41,96.36,65.07,103,61.19,103,61.19"/>
    <path class="cls-1" d="M1196.8,182.22s96.36-1.41,96.36,65.07,103,61.19,103,61.19"/>
    <path class="cls-1" d="M1595.72,113.09s-96.37-1.41-96.37,65.06-103,61.2-103,61.2"/>
    <path class="cls-1" d="M1595.63,147.05s-96.37-1.41-96.37,65.07-103,61.19-103,61.19"/>
    <path class="cls-1" d="M1595.63,182.22s-96.37-1.41-96.37,65.07-103,61.19-103,61.19"/>
    <path class="cls-2" d="M797.69,7s96.37-1.4,96.37,65.07,103.05,61.2,103.05,61.2"/>
    <path class="cls-3" d="M797.69,41s96.37-1.41,96.37,65.06,103.05,61.2,103.05,61.2"/>
    <path class="cls-4" d="M797.69,76.12s96.37-1.41,96.37,65.06,103.05,61.2,103.05,61.2"/>
    <path class="cls-2" d="M1196.48,7s-96.37-1.41-96.37,65.07-103,61.19-103,61.19"/>
    <path class="cls-3" d="M1196.31,41S1100,39.55,1100,106s-103.05,61.2-103.05,61.2"/>
    <path class="cls-4" d="M1196.31,76.13S1100,74.72,1100,141.19s-103.05,61.2-103.05,61.2"/>
    <path class="cls-2" d="M1196.48,7s96.37-1.41,96.37,65.07,103.05,61.19,103.05,61.19"/>
    <path class="cls-3" d="M1196.31,41s96.37-1.41,96.37,65.06,103,61.2,103,61.2"/>
    <path class="cls-4" d="M1196.31,76.13s96.37-1.41,96.37,65.06,103,61.2,103,61.2"/>
    <path class="cls-2" d="M1595.32,7S1499,5.58,1499,72.06s-103,61.19-103,61.19"/>
    <path class="cls-3" d="M1595.15,41s-96.37-1.41-96.37,65.06-103,61.2-103,61.2"/>
    <path class="cls-4" d="M1595.15,76.13s-96.37-1.41-96.37,65.06-103,61.2-103,61.2"/>
  </g>
  <g>
    <path class="cls-1" d="M1595.61,113.09s96.37-1.41,96.37,65.06,103,61.2,103,61.2"/>
    <path class="cls-1" d="M1595.61,147.05s96.37-1.41,96.37,65.07,103,61.19,103,61.19"/>
    <path class="cls-1" d="M1595.61,182.22s96.37-1.41,96.37,65.07,103,61.19,103,61.19"/>
    <path class="cls-1" d="M1994.4,113.09s-96.37-1.4-96.37,65.07-103,61.2-103,61.2"/>
    <path class="cls-1" d="M1994.23,147.06s-96.36-1.41-96.36,65.06-103,61.2-103,61.2"/>
    <path class="cls-1" d="M1994.23,182.23s-96.36-1.41-96.36,65.06-103,61.2-103,61.2"/>
    <path class="cls-2" d="M1595.13,7s96.36-1.41,96.36,65.07,103,61.19,103,61.19"/>
    <path class="cls-3" d="M1595.13,41s96.36-1.4,96.36,65.07,103,61.2,103,61.2"/>
    <path class="cls-4" d="M1595.13,76.13s96.36-1.41,96.36,65.06,103,61.2,103,61.2"/>
    <path class="cls-2" d="M1993.92,7s-96.37-1.41-96.37,65.06-103,61.2-103,61.2"/>
    <path class="cls-3" d="M1993.75,41s-96.37-1.4-96.37,65.07-103.05,61.2-103.05,61.2"/>
    <path class="cls-4" d="M1993.75,76.13s-96.37-1.4-96.37,65.07-103.05,61.2-103.05,61.2"/>
  </g>
  <g>
    <path class="cls-1" d="M1,647.13s96.36-1.41,96.36,65.07,103.05,61.19,103.05,61.19"/>
    <path class="cls-1" d="M1,681.09s96.36-1.4,96.36,65.07,103.05,61.2,103.05,61.2"/>
    <path class="cls-1" d="M399.75,647.14s-96.37-1.41-96.37,65.06-103,61.2-103,61.2"/>
    <path class="cls-1" d="M399.58,681.1s-96.37-1.41-96.37,65.07-103,61.19-103,61.19"/>
    <path class="cls-1" d="M399.71,647.14s96.37-1.41,96.37,65.06,103.05,61.2,103.05,61.2"/>
    <path class="cls-1" d="M399.58,681.1S496,679.69,496,746.17,599,807.36,599,807.36"/>
    <path class="cls-1" d="M798.51,647.14s-96.37-1.41-96.37,65.06-103,61.2-103,61.2"/>
    <path class="cls-1" d="M798.42,681.1s-96.37-1.41-96.37,65.07-103,61.19-103,61.19"/>
    <path class="cls-2" d="M.47,541s96.37-1.4,96.37,65.07,103,61.2,103,61.2"/>
    <path class="cls-3" d="M.47,575s96.37-1.41,96.37,65.06,103,61.2,103,61.2"/>
    <path class="cls-4" d="M.47,610.17s96.37-1.41,96.37,65.06,103,61.2,103,61.2"/>
    <path class="cls-2" d="M399.27,541s-96.37-1.41-96.37,65.07-103,61.19-103,61.19"/>
    <path class="cls-3" d="M399.1,575s-96.37-1.41-96.37,65.06-103,61.2-103,61.2"/>
    <path class="cls-4" d="M399.1,610.18s-96.37-1.41-96.37,65.06-103,61.2-103,61.2"/>
    <path class="cls-2" d="M399.27,541s96.36-1.41,96.36,65.07,103,61.19,103,61.19"/>
    <path class="cls-3" d="M399.1,575s96.37-1.41,96.37,65.06,103,61.2,103,61.2"/>
    <path class="cls-4" d="M399.1,610.18s96.37-1.41,96.37,65.06,103,61.2,103,61.2"/>
    <path class="cls-2" d="M798.1,541s-96.37-1.41-96.37,65.07S598.68,667.3,598.68,667.3"/>
    <path class="cls-3" d="M797.93,575s-96.36-1.41-96.36,65.06-103.05,61.2-103.05,61.2"/>
    <path class="cls-4" d="M797.93,610.18s-96.36-1.41-96.36,65.06-103.05,61.2-103.05,61.2"/>
  </g>
  <g>
    <path class="cls-1" d="M798.39,647.14s96.37-1.41,96.37,65.07,103,61.19,103,61.19"/>
    <path class="cls-1" d="M798.39,681.1s96.37-1.4,96.37,65.07,103,61.2,103,61.2"/>
    <path class="cls-1" d="M1197.18,647.15s-96.37-1.41-96.37,65.06-103,61.2-103,61.2"/>
    <path class="cls-1" d="M1197,681.11s-96.36-1.41-96.36,65.07S997.6,807.37,997.6,807.37"/>
    <path class="cls-1" d="M1197.14,647.15s96.37-1.41,96.37,65.06,103,61.2,103,61.2"/>
    <path class="cls-1" d="M1197,681.11s96.37-1.41,96.37,65.07,103,61.19,103,61.19"/>
    <path class="cls-1" d="M1595.94,647.15s-96.37-1.41-96.37,65.06-103,61.2-103,61.2"/>
    <path class="cls-1" d="M1595.85,681.11s-96.37-1.41-96.37,65.07-103,61.19-103,61.19"/>
    <path class="cls-2" d="M797.91,541s96.36-1.4,96.36,65.07,103.05,61.2,103.05,61.2"/>
    <path class="cls-3" d="M797.91,575s96.36-1.41,96.36,65.06,103.05,61.2,103.05,61.2"/>
    <path class="cls-4" d="M797.91,610.18s96.36-1.41,96.36,65.06,103.05,61.2,103.05,61.2"/>
    <path class="cls-2" d="M1196.7,541.05s-96.37-1.41-96.37,65.07-103,61.19-103,61.19"/>
    <path class="cls-3" d="M1196.53,575s-96.37-1.41-96.37,65.06-103.05,61.2-103.05,61.2"/>
    <path class="cls-4" d="M1196.53,610.19s-96.37-1.41-96.37,65.06-103.05,61.2-103.05,61.2"/>
    <path class="cls-2" d="M1196.7,541.05s96.37-1.41,96.37,65.07,103,61.19,103,61.19"/>
    <path class="cls-3" d="M1196.53,575s96.37-1.41,96.37,65.06,103,61.2,103,61.2"/>
    <path class="cls-4" d="M1196.53,610.19s96.37-1.41,96.37,65.06,103,61.2,103,61.2"/>
    <path class="cls-2" d="M1595.53,541.05s-96.36-1.41-96.36,65.07-103.05,61.19-103.05,61.19"/>
    <path class="cls-3" d="M1595.37,575S1499,573.61,1499,640.08s-103,61.2-103,61.2"/>
    <path class="cls-4" d="M1595.37,610.19S1499,608.78,1499,675.25s-103,61.2-103,61.2"/>
  </g>
  <g>
    <path class="cls-1" d="M1595.83,647.15s96.36-1.41,96.36,65.06,103,61.2,103,61.2"/>
    <path class="cls-1" d="M1595.83,681.11s96.36-1.41,96.36,65.07,103,61.19,103,61.19"/>
    <path class="cls-1" d="M1994.62,647.15s-96.37-1.4-96.37,65.07-103,61.2-103,61.2"/>
    <path class="cls-1" d="M1994.45,681.12s-96.37-1.41-96.37,65.06-103,61.2-103,61.2"/>
    <path class="cls-2" d="M1595.34,541.05s96.37-1.41,96.37,65.07,103,61.19,103,61.19"/>
    <path class="cls-3" d="M1595.34,575s96.37-1.4,96.37,65.07,103,61.2,103,61.2"/>
    <path class="cls-4" d="M1595.34,610.19s96.37-1.41,96.37,65.06,103,61.2,103,61.2"/>
    <path class="cls-2" d="M1994.13,541.06s-96.36-1.41-96.36,65.06-103,61.2-103,61.2"/>
    <path class="cls-3" d="M1994,575s-96.37-1.4-96.37,65.07-103,61.2-103,61.2"/>
    <path class="cls-4" d="M1994,610.19s-96.37-1.4-96.37,65.07-103,61.2-103,61.2"/>
  </g>
</svg>
