<svg id="Layer_1" data-name="Layer 1" xmlns="http://www.w3.org/2000/svg" viewBox="0 0 1920 700">
  <defs>
    <style>
      .cls-1 {
        fill: #9088ff;
      }
    </style>
  </defs>
  <polygon class="cls-1" points="266.29 514.04 229.12 525 207.2 493.04 230.83 462.32 267.35 475.3 266.29 514.04"/>
  <polygon class="cls-1" points="814.74 61.07 788.81 89.87 753.4 74.11 757.46 35.56 795.36 27.51 814.74 61.07"/>
  <polygon class="cls-1" points="62.48 47.16 59.74 73.32 34 78.79 20.85 56.01 38.45 36.46 62.48 47.16"/>
  <polygon class="cls-1" points="1704.84 666.49 1731.1 667.99 1737.79 693.43 1715.66 707.66 1695.3 691.01 1704.84 666.49"/>
  <polygon class="cls-1" points="1681.9 232.64 1660.61 226.72 1643.66 240.9 1642.71 218.82 1623.99 207.08 1644.69 199.36 1650.07 177.92 1663.82 195.23 1685.87 193.72 1673.65 212.14 1681.9 232.64"/>
  <polygon class="cls-1" points="1075.76 635.84 1088.47 619.63 1082.32 599.97 1101.66 607.05 1118.45 595.13 1117.7 615.71 1134.22 627.99 1114.42 633.64 1107.84 653.15 1096.35 636.06 1075.76 635.84"/>
  <polygon class="cls-1" points="173.19 274.63 148.41 286.86 144.44 314.2 125.15 294.42 97.92 299.09 110.78 274.63 97.92 250.18 125.15 254.85 144.44 235.07 148.41 262.41 173.19 274.63"/>
  <circle class="cls-1" cx="1857.38" cy="339.86" r="25.66"/>
  <circle class="cls-1" cx="1358.18" cy="16.04" r="26.35"/>
  <circle class="cls-1" cx="1017.99" cy="422.22" r="15.52"/>
  <circle class="cls-1" cx="156.05" cy="674.89" r="30.51"/>
  <rect class="cls-1" x="759.95" y="637.08" width="48.24" height="48.24" transform="translate(-58.58 76.49) rotate(-5.38)"/>
  <rect class="cls-1" x="641.08" y="275.46" width="40.66" height="40.66" transform="translate(236.51 -291.08) rotate(30)"/>
  <rect class="cls-1" x="1604.33" y="452.4" width="34.17" height="34.17" transform="translate(404.12 1638.92) rotate(-60)"/>
  <polygon class="cls-1" points="957.84 177.92 993.33 213.5 944.77 226.44 957.84 177.92"/>
  <polygon class="cls-1" points="391.63 156.74 383.01 199.1 350.64 170.46 391.63 156.74"/>
  <polygon class="cls-1" points="1479.55 615.97 1416.45 652.39 1416.45 579.54 1479.55 615.97"/>
  <polygon class="cls-1" points="1298.82 227.16 1312.79 210.72 1334.01 214.6 1341.26 234.92 1327.29 251.35 1306.07 247.48 1298.82 227.16"/>
  <polygon class="cls-1" points="1856.52 89.46 1829.43 120.85 1788.7 113.09 1775.06 73.94 1802.14 42.55 1842.87 50.31 1856.52 89.46"/>
  <polygon class="cls-1" points="571.05 511 544.09 523.01 520.22 505.66 523.3 476.31 550.26 464.31 574.13 481.66 571.05 511"/>
  <polygon class="cls-1" points="1303.33 446.88 1294.6 435.81 1280.52 436.73 1288.35 425 1283.13 411.89 1296.71 415.72 1307.56 406.7 1308.11 420.8 1320.04 428.33 1306.81 433.21 1303.33 446.88"/>
  <polygon class="cls-1" points="367.03 20.09 358.3 9.02 344.22 9.94 352.05 -1.8 346.83 -14.9 360.41 -11.07 371.26 -20.09 371.81 -6 383.74 1.53 370.51 6.42 367.03 20.09"/>
</svg>
