<svg id="Layer_1" data-name="Layer 1" xmlns="http://www.w3.org/2000/svg" viewBox="0 0 1920 700">
  <defs>
    <style>
      .cls-1, .cls-2, .cls-3, .cls-4 {
        fill: none;
        stroke-miterlimit: 10;
      }

      .cls-1 {
        stroke: #745fff;
      }

      .cls-2 {
        stroke: #d5d2ff;
      }

      .cls-3 {
        stroke: #b8b3ff;
      }

      .cls-4 {
        stroke: #9088ff;
      }
    </style>
  </defs>
  <path class="cls-1" d="M-190.36,310.42s274-4,274,185,293,174,293,174"/>
  <path class="cls-1" d="M-190.36,407s274-4,274,185,293,174,293,174"/>
  <path class="cls-1" d="M-190.36,507s274-4,274,185,293,174,293,174"/>
  <path class="cls-1" d="M943.52,310.45s-274-4-274,185-293,174-293,174"/>
  <path class="cls-1" d="M943,407s-274-4-274,185S376,766,376,766"/>
  <path class="cls-1" d="M943,507s-274-4-274,185S376,866,376,866"/>
  <path class="cls-1" d="M943.41,310.45s274-4,274,185,293,174,293,174"/>
  <path class="cls-1" d="M943,407s274-4,274,185,293,174,293,174"/>
  <path class="cls-1" d="M943,507s274-4,274,185,293,174,293,174"/>
  <path class="cls-1" d="M2077.3,310.45s-274-4-274,185-293,174-293,174"/>
  <path class="cls-1" d="M2077,407s-274-4-274,185-293,174-293,174"/>
  <path class="cls-1" d="M2077,507s-274-4-274,185-293,174-293,174"/>
  <path class="cls-2" d="M-191.73,8.77s274-4,274,185,293,174,293,174"/>
  <path class="cls-3" d="M-191.73,105.34s274-4,274,185,293,174,293,174"/>
  <path class="cls-4" d="M-191.73,205.34s274-4,274,185,293,174,293,174"/>
  <path class="cls-2" d="M942.14,8.79s-274-4-274,185-293,174-293,174"/>
  <path class="cls-3" d="M941.67,105.36s-274-4-274,185-293,174-293,174"/>
  <path class="cls-4" d="M941.67,205.36s-274-4-274,185-293,174-293,174"/>
  <path class="cls-2" d="M942.14,8.79s274-4,274,185,293,174,293,174"/>
  <path class="cls-3" d="M941.67,105.36s274-4,274,185,293,174,293,174"/>
  <path class="cls-4" d="M941.67,205.36s274-4,274,185,293,174,293,174"/>
  <path class="cls-2" d="M2076.14,8.79s-274-4-274,185-293,174-293,174"/>
  <path class="cls-3" d="M2075.67,105.36s-274-4-274,185-293,174-293,174"/>
  <path class="cls-4" d="M2075.67,205.36s-274-4-274,185-293,174-293,174"/>
</svg>
