<?xml version="1.0" encoding="utf-8"?>
<!-- Generator: Adobe Illustrator 25.4.1, SVG Export Plug-In . SVG Version: 6.00 Build 0)  -->
<svg version="1.1" id="Layer_1" xmlns="http://www.w3.org/2000/svg" xmlns:xlink="http://www.w3.org/1999/xlink" x="0px" y="0px"
	 viewBox="0 0 500 500" style="enable-background:new 0 0 500 500;" xml:space="preserve">
<style type="text/css">
	.st0{fill:#48C1C4;}
	.st1{fill:#4AC1C4;}
</style>
<g id="cnsrvit-text-icon-dark">
	<path d="M28.9,442.3c0-32.4,24.3-52.4,46.6-52.4c17.8,0,30.7,8.1,39.9,17.5l-8,14.9c-7.8-7.5-17.3-14.8-31.2-14.8
		c-14.9,0-29.1,13.3-29.1,35.2c0,21.3,14.2,35.1,29,35.1c13.9,0,24-7.4,32-15l9,12.9c-5.3,7.5-20,19.3-41,19.3
		C55.3,495,28.9,477,28.9,442.3z"/>
	<path d="M158.3,421.7c14.9,0,26.1,10.5,26.1,24.4v46.3h-16.1v-42.6c0-5.8-2.8-12.1-11.1-12.1c-6.1,0-12.6,5.4-17.3,9.8v44.9h-16.2
		v-69.6h16.2v8.2C143.9,426.7,149.7,421.7,158.3,421.7z"/>
	<path d="M191.6,484.2l5.5-12.8c8.4,5.5,13.9,8,23.4,8c3.4,0,15.3-1.1,15.3-8c0-5.5-10.9-6.1-14.6-6.1c-11.1,0-31.7-1.6-31.7-20.5
		c0-19.5,19-23.4,31.5-23.4c12.9,0,21.2,3.8,28.3,11.5l-6,10.8c-6.7-5.1-13.6-8.1-22.3-8.1c-4.8,0-16.3-0.1-16.3,8.4
		c0,6,13.1,6.4,16.5,6.4c11.1,0,30.7,3,30.7,20.9s-20,22.2-31.4,22.2C208.9,493.4,201.7,491,191.6,484.2z"/>
	<path d="M337.7,492.4l-30.1-67.9v-1.7h16.8l18.6,45.6l18.8-45.6h16.8v1.7l-30,67.9H337.7z"/>
	<g>
		<path class="st0" d="M400.4,412.6c5.2,0,9.4-4.2,9.4-9.4s-4.2-9.4-9.4-9.4s-9.4,4.2-9.4,9.4c0,0,0,0,0,0
			C391,408.4,395.2,412.6,400.4,412.6C400.4,412.6,400.4,412.6,400.4,412.6z"/>
		<path class="st0" d="M465.2,469.4c-3.7,4.3-9.4,5.8-11.1,5.8c-3,0-4.8-0.6-6.4-1.9c-2.3-2.3-3.7-6-3.7-10.2v-27h22.7v-13.3H444
			v-21.4l-15.9,7.8v13.6h-35.5v69.6h16.2v-56.2h19.4v30.1c0,7.7,3.7,16.8,9,21c3.8,3.4,8.8,5.3,13.9,5.1c6.7,0,12.9-4,20.2-11.6
			L465.2,469.4z"/>
	</g>
	<g>
		<path class="st1" d="M260.7,371.1c-100.7,0-182.7-81.7-183-182.5C77.3,87.5,159,5.3,260.1,5c0,0,0,0,0.1,0h0.6
			c101.1,0,183,82,183,183.1c0,48.3-19.1,94.7-53.2,129c-34.1,34.5-80.7,54-129.3,54H260.7z M260.7,20.7h-0.5
			C167.7,21,93,96.1,93.3,188.6c0.3,92.1,75.3,166.9,167.4,166.9h0.5c92.4-0.3,167.2-75.4,166.9-167.9
			c-0.1-44.4-17.9-86.9-49.4-118.2C347.4,38.1,304.9,20.5,260.7,20.7L260.7,20.7z"/>
		<g>
			<path class="st1" d="M356.2,137.4c3.4-52.2-48.3-68.9-48.9-69.1c-53.6-15.9-80.2,17.3-89.7,33.9c-13.5-7.4-28.1-7.4-40.1,0.2
				c-15.7,10.1-20,22.9-21,31.2c-10.5,5.2-33.3,20.2-33.1,51.8c0.2,17.8,8.7,33.1,24.7,44.3c10.5,7.4,23,11.3,35.8,11.2h0.7
				l39.1-0.3c5.3-0.2,9.4-4.7,9.2-10c0,0,0,0,0,0c-0.2-5.1-4.4-9.1-9.5-9.2l-39,0.3c-9.1,0.2-18-2.5-25.4-7.7
				c-11-7.7-16.4-17.1-16.5-28.7c-0.2-27.6,25.1-35.8,26.1-36.1c4.5-1.4,7.4-5.8,6.7-10.5c-0.1-0.5-1.2-11.4,12.4-20.2
				c12.9-8.3,26.1,4.4,26.6,4.9c3.7,3.7,9.8,3.7,13.5,0c1.1-1.1,1.9-2.4,2.3-3.8c0.7-2,16.9-49.3,71.3-33.1
				c1.7,0.5,42.3,13.8,34.5,56.8c-0.9,5.2,2.6,10.2,7.8,11.1c0,0,0,0,0,0c0.3,0.1,0.7,0.1,1,0.1c3.5,0.2,33.7,3.3,33.9,35.9
				c0.1,8.6-2.4,15.3-7.4,20c-11.1,10.5-31.5,9.4-31.7,9.3h-0.5l-40.9,0.4c-5.3,0.2-9.4,4.7-9.2,10c0,0,0,0,0,0
				c0.2,5.1,4.4,9.1,9.5,9.2l40-0.3c2.9,0.2,29.2,1.2,45.9-14.5c9-8.5,13.6-20,13.5-34.1C397.7,153.4,369.8,141.2,356.2,137.4z"/>
			<path class="st1" d="M296.6,275.8c-1.6-15.5-19.8-19.8-28.1-21l-0.5-60l5.9-0.1c6.2-0.1,12.8-0.1,16.2-0.1
				c1.2-0.1,2.4-0.5,3.4-1.4c0.9-0.9,1.4-2,1.4-3.2v-0.7c-0.1-1-0.2-2.3-0.4-3.6c-0.9-9.5-2.3-25.5-13.1-39.5
				c-4.8-6.3-10.7-10.6-15-13.9c-0.9-0.6-1.7-1.2-2.3-1.8c-0.8-0.7-1.9-1-3-1h-1.1c-1,0-2,0.3-2.9,1c-6,4.8-11.7,10.1-17,15.7
				c-10.9,11.9-12,29-12.6,39.3c-0.1,1.6-0.2,3.1-0.3,4.2c-0.3,2.6,1.6,4.9,4.2,5.2c0,0,0,0,0,0h0.4l20.6-0.2l0.5,60.2
				c-16.6,2.8-26.5,11.3-26.7,22.9l0.1,12.8c0,4.3,3.5,7.8,7.8,7.7c0,0,0,0,0,0l0,0l54.9-0.8c4.3-0.1,7.7-3.6,7.7-7.9l-0.1-12.8
				C296.7,276.6,296.7,276.2,296.6,275.8z M281.2,282.3l-39.3,0.6v-4.8c0.1-4.9,12.4-7.8,19.3-8.2c0.3,0,0.6-0.1,0.5-0.1
				c6.9,0.2,19.3,3,19.5,8.2V282.3z"/>
		</g>
	</g>
	<path d="M299.3,422.6c-2.3-0.7-4.7-1-7.2-1c-6.1,0-12.8,4.7-17,9.6v-8.4h-16.2v69.6h16.2V449c5.7-8.9,17-13.4,21.8-13.6
		c3.3-0.2,6.4,0.1,9.5,2.7L299.3,422.6z"/>
</g>
</svg>
