<svg xmlns="http://www.w3.org/2000/svg" viewBox="0 0 482.95 347.54">
  <defs>
    <style>
      .cls-1 {
        fill: #745fff;
      }
    </style>
  </defs>
  <g id="Layer_2" data-name="Layer 2">
    <g id="Layer_1-2" data-name="Layer 1">
      <g>
        <path class="cls-1" d="M180.08,252.65h92.24a35.47,35.47,0,0,0,35.43-35.43V183.83a35.47,35.47,0,0,0-35.43-35.44H180.08a35.47,35.47,0,0,0-35.43,35.44v33.39A35.47,35.47,0,0,0,180.08,252.65Zm-33.3-68.82a33.34,33.34,0,0,1,33.3-33.3h92.24a33.34,33.34,0,0,1,33.3,33.3v33.39a33.34,33.34,0,0,1-33.3,33.3H180.08a33.34,33.34,0,0,1-33.3-33.3Z"/>
        <path class="cls-1" d="M196.18,238.07h60a28.59,28.59,0,0,0,28.56-28.55v-18A28.59,28.59,0,0,0,256.22,163h-60a28.59,28.59,0,0,0-28.56,28.56v18A28.59,28.59,0,0,0,196.18,238.07Zm-26.42-46.54a26.46,26.46,0,0,1,26.42-26.43h60a26.46,26.46,0,0,1,26.42,26.43v18a26.45,26.45,0,0,1-26.42,26.42h-60a26.45,26.45,0,0,1-26.42-26.42Z"/>
        <path class="cls-1" d="M288.18,294.79c11.12-1.13,11.39-13.53,11.39-13.67v-4.75h0v-4.71c0-.13-.26-12.53-11.49-13.67h-121v0h-3.7c-6,.61-7.68,6.29-7.71,9.22v7h0v3.08c0,2.92,1.69,8.61,7.82,9.22h21.56v-2.14H163.62c-5.63-.58-5.79-6.86-5.8-7.11v-3.08h0v-7c0-.27.17-6.55,5.69-7.12H288c9.22.94,9.47,11.13,9.47,11.55v4.75h0v4.69c0,.43-.23,10.62-9.37,11.55H169.3v2.13H288.18Z"/>
        <path class="cls-1" d="M210.31,309.05v9.27a10.94,10.94,0,0,0,10.93,10.93h18.35a10.94,10.94,0,0,0,10.92-10.93v-9.27a10.94,10.94,0,0,0-10.92-10.93H220.81c-.66,0-6.55,0-9.08,2.53a3.79,3.79,0,0,0-1.18,2.76h2.13a1.71,1.71,0,0,1,.55-1.25c1.61-1.6,6-1.92,7.57-1.9h18.79a8.8,8.8,0,0,1,8.79,8.79v9.27a8.8,8.8,0,0,1-8.79,8.79H221.24a8.8,8.8,0,0,1-8.79-8.79v-9.27Z"/>
        <path class="cls-1" d="M145.59,319.56l-2.08.47c2.61,11.53,16.62,27.51,36.16,27.51h96v-2.13h-96C159.71,345.41,147.63,328.57,145.59,319.56Z"/>
        <path class="cls-1" d="M275.7,345.41v2.13c19.88,0,33.78-16,36.17-27.53l-2.09-.43C307.6,330.13,294.2,345.41,275.7,345.41Z"/>
        <path class="cls-1" d="M340.41,258.85l-20,0v0H307.71c-1.13-4.49-3.12-9.29-6.62-12.17l-1.35,1.65c7.07,5.81,7.34,21.43,7.34,21.58v26.65a40.08,40.08,0,0,1-40,40H188.28a40.08,40.08,0,0,1-40-40V269.92c.09-12.43,6.93-19.65,7-19.73l-1.53-1.48c-.31.31-7.5,7.87-7.6,21.2v26.65a42.22,42.22,0,0,0,42.17,42.17H267a42.22,42.22,0,0,0,42.17-42.17V269.9a51.68,51.68,0,0,0-1-8.92h8.88v0l23.31,0c9.13.29,23.62,2.71,23.62,8,0,5.91-15.25,7.78-21.11,8-2.54.05-15.2.58-15.2,6.22a4.28,4.28,0,0,0,1.22,3.21c1.13,1.1,2.87,1.49,5,1.6a17.75,17.75,0,0,0-9.14,15.5v7.62a17.71,17.71,0,0,0,35.24,2.49h.12c0-.2,0-.4,0-.61a16.79,16.79,0,0,0,.1-1.88v-7.62a17.73,17.73,0,0,0-16.65-17.67v-.05h-1.06c-1.33,0-2.61,0-3.84.07-3.8.11-7.09.2-8.3-1a2.1,2.1,0,0,1-.58-1.68c0-2.61,7.83-4,13.13-4.09,2.38-.09,23.18-1.12,23.18-10.13S343.08,258.93,340.41,258.85Zm1.06,29.1v8.28a17.42,17.42,0,0,0-14.52,10v-2.8A15.58,15.58,0,0,1,341.47,288Zm1.07,38.73a15.6,15.6,0,0,1-15.37-13.09h.28a15.29,15.29,0,0,1,30.56-.72A15.59,15.59,0,0,1,342.54,326.68Zm15.58-23.2v1.91a17.41,17.41,0,0,0-14.52-9.18V288A15.58,15.58,0,0,1,358.12,303.48Z"/>
        <path class="cls-1" d="M228.46,160.31a3.83,3.83,0,1,0-3.83-3.82A3.83,3.83,0,0,0,228.46,160.31Zm0-5.51a1.69,1.69,0,1,1-1.7,1.69A1.69,1.69,0,0,1,228.46,154.8Z"/>
        <path class="cls-1" d="M194.82,221.16a8.89,8.89,0,0,0,5.63,2.26,6.56,6.56,0,0,0,4.6-1.93h0l.1-.1.08-.07h0c3.76-3.62,1.82-8.17.19-10.15l-10-10.63L205,190c1.62-2,3.63-6.66-.19-10.29l0,0c-3.83-3.82-8.49-1.56-10.46.21l-11.47,11.47a13.38,13.38,0,0,0-4,8.77c-.07,3.32,1.4,6.5,4.35,9.46ZM184.4,192.93l11.46-11.46c.17-.15,4.07-3.57,7.43-.3h0c3.5,3.19.24,7.32.14,7.45l-11,12,1.19,1.08,10.17,10.85c.13.16,3.31,4.11-.17,7.31s-7.24-.17-7.37-.28l-11.5-11.5c-2.52-2.52-3.78-5.17-3.73-7.88A11.4,11.4,0,0,1,184.4,192.93Z"/>
        <path class="cls-1" d="M220,202.26l6.17,15c.89,1.88,3.28,4.75,6.77,4.75a7.39,7.39,0,0,0,2.74-.57h0c4.83-2.37,4.22-7.47,3.2-9.89l-7-14.51-6-14.62c-1.11-2.34-4.53-6.23-9.55-4.17h0c-4.87,2.36-4.24,7.48-3.2,9.9Zm-2.76-22.1c4.34-1.74,6.66,2.93,6.73,3.07l6,14.53h0l0,0,.12.29h0L237,212.38c.09.2,2,5-2.17,7.08-4.3,1.68-6.61-3-6.69-3.1l-6.19-15h0l-6.81-14.1C215,187,213.06,182.23,217.23,180.16Z"/>
        <path class="cls-1" d="M246.82,221.32h0s.05,0,.07.07a.94.94,0,0,1,.1.1h0a6.56,6.56,0,0,0,4.6,1.93,9,9,0,0,0,5.68-2.3l11.5-11.5c3-3,4.42-6.14,4.35-9.46a13.37,13.37,0,0,0-4-8.74l-11.55-11.54c-1.93-1.73-6.59-4-10.42-.17l0,0c-3.82,3.63-1.81,8.3-.15,10.33l9.54,10.48-10,10.68C245,213.15,243.06,217.7,246.82,221.32Zm1.37-8.69,10.23-10.91,1.17-1.07-10.92-12c-.14-.17-3.4-4.3.1-7.49h0c3.34-3.25,7.27.15,7.39.26L267.68,193a11.32,11.32,0,0,1,3.32,7.25c.06,2.71-1.2,5.37-3.73,7.9l-11.46,11.46c-.16.15-4.05,3.56-7.41.32S248.1,212.74,248.19,212.63Z"/>
        <path class="cls-1" d="M165.34,271.89h-2.55a2.83,2.83,0,0,0-2.82,2.83v2.55a2.83,2.83,0,0,0,2.82,2.82h2.55a2.83,2.83,0,0,0,2.83-2.82v-2.55A2.83,2.83,0,0,0,165.34,271.89Zm.7,5.38a.69.69,0,0,1-.7.69h-2.55a.69.69,0,0,1-.69-.69v-2.55a.69.69,0,0,1,.69-.69h2.55a.69.69,0,0,1,.7.69Z"/>
        <path class="cls-1" d="M168.17,265.22a2.83,2.83,0,0,0-2.83-2.83h-2.55a2.83,2.83,0,0,0-2.82,2.83v2.55a2.82,2.82,0,0,0,2.82,2.82h2.55a2.83,2.83,0,0,0,2.83-2.82ZM166,267.77a.69.69,0,0,1-.7.69h-2.55a.69.69,0,0,1-.69-.69v-2.55a.69.69,0,0,1,.69-.69h2.55a.69.69,0,0,1,.7.69Z"/>
        <path class="cls-1" d="M175.73,271.89h-2.55a2.83,2.83,0,0,0-2.82,2.83v2.55a2.82,2.82,0,0,0,2.82,2.82h2.55a2.83,2.83,0,0,0,2.83-2.82v-2.55A2.83,2.83,0,0,0,175.73,271.89Zm.69,5.38a.69.69,0,0,1-.69.69h-2.55a.69.69,0,0,1-.69-.69v-2.55a.69.69,0,0,1,.69-.69h2.55a.69.69,0,0,1,.69.69Z"/>
        <path class="cls-1" d="M178.56,265.22a2.83,2.83,0,0,0-2.83-2.83h-2.55a2.83,2.83,0,0,0-2.82,2.83v2.55a2.82,2.82,0,0,0,2.82,2.82h2.55a2.83,2.83,0,0,0,2.83-2.82Zm-2.14,2.55a.69.69,0,0,1-.69.69h-2.55a.69.69,0,0,1-.69-.69v-2.55a.69.69,0,0,1,.69-.69h2.55a.69.69,0,0,1,.69.69Z"/>
        <path class="cls-1" d="M180.74,277.27a2.83,2.83,0,0,0,2.83,2.82h2.55a2.83,2.83,0,0,0,2.82-2.82v-2.55a2.83,2.83,0,0,0-2.82-2.83h-2.55a2.83,2.83,0,0,0-2.83,2.83Zm2.14-2.55a.69.69,0,0,1,.69-.69h2.55a.69.69,0,0,1,.69.69v2.55a.69.69,0,0,1-.69.69h-2.55a.69.69,0,0,1-.69-.69Z"/>
        <path class="cls-1" d="M183.57,270.59h2.55a2.82,2.82,0,0,0,2.82-2.82v-2.55a2.83,2.83,0,0,0-2.82-2.83h-2.55a2.83,2.83,0,0,0-2.83,2.83v2.55A2.83,2.83,0,0,0,183.57,270.59Zm-.69-5.37a.69.69,0,0,1,.69-.69h2.55a.69.69,0,0,1,.69.69v2.55a.69.69,0,0,1-.69.69h-2.55a.69.69,0,0,1-.69-.69Z"/>
        <path class="cls-1" d="M191.13,277.27a2.83,2.83,0,0,0,2.82,2.82h2.55a2.83,2.83,0,0,0,2.83-2.82v-2.55a2.83,2.83,0,0,0-2.83-2.83H194a2.83,2.83,0,0,0-2.82,2.83Zm2.13-2.55A.69.69,0,0,1,194,274h2.55a.69.69,0,0,1,.69.69v2.55a.69.69,0,0,1-.69.69H194a.69.69,0,0,1-.69-.69Z"/>
        <path class="cls-1" d="M194,270.59h2.55a2.83,2.83,0,0,0,2.83-2.82v-2.55a2.83,2.83,0,0,0-2.83-2.83H194a2.83,2.83,0,0,0-2.82,2.83v2.55A2.82,2.82,0,0,0,194,270.59Zm-.69-5.37a.69.69,0,0,1,.69-.69h2.55a.69.69,0,0,1,.69.69v2.55a.69.69,0,0,1-.69.69H194a.69.69,0,0,1-.69-.69Z"/>
        <path class="cls-1" d="M201.51,277.27a2.83,2.83,0,0,0,2.83,2.82h2.55a2.82,2.82,0,0,0,2.82-2.82v-2.55a2.83,2.83,0,0,0-2.82-2.83h-2.55a2.83,2.83,0,0,0-2.83,2.83Zm2.14-2.55a.69.69,0,0,1,.69-.69h2.55a.69.69,0,0,1,.69.69v2.55a.69.69,0,0,1-.69.69h-2.55a.69.69,0,0,1-.69-.69Z"/>
        <path class="cls-1" d="M204.34,270.55h2.55a2.82,2.82,0,0,0,2.82-2.82v-2.55a2.83,2.83,0,0,0-2.82-2.83h-2.55a2.83,2.83,0,0,0-2.83,2.83v2.55A2.83,2.83,0,0,0,204.34,270.55Zm-.69-5.37a.7.7,0,0,1,.69-.7h2.55a.7.7,0,0,1,.69.7v2.55a.69.69,0,0,1-.69.69h-2.55a.69.69,0,0,1-.69-.69Z"/>
        <path class="cls-1" d="M211.9,277.27a2.83,2.83,0,0,0,2.83,2.82h2.54a2.83,2.83,0,0,0,2.83-2.82v-2.55a2.83,2.83,0,0,0-2.83-2.83h-2.54a2.83,2.83,0,0,0-2.83,2.83Zm2.13-2.55a.69.69,0,0,1,.7-.69h2.54a.69.69,0,0,1,.7.69v2.55a.69.69,0,0,1-.7.69h-2.54a.69.69,0,0,1-.7-.69Z"/>
        <path class="cls-1" d="M214.73,270.55h2.54a2.83,2.83,0,0,0,2.83-2.82v-2.55a2.83,2.83,0,0,0-2.83-2.83h-2.54a2.83,2.83,0,0,0-2.83,2.83v2.55A2.83,2.83,0,0,0,214.73,270.55Zm-.7-5.37a.7.7,0,0,1,.7-.7h2.54a.7.7,0,0,1,.7.7v2.55a.69.69,0,0,1-.7.69h-2.54a.69.69,0,0,1-.7-.69Z"/>
        <path class="cls-1" d="M222.29,277.27a2.82,2.82,0,0,0,2.82,2.82h2.55a2.83,2.83,0,0,0,2.83-2.82v-2.55a2.83,2.83,0,0,0-2.83-2.83h-2.55a2.83,2.83,0,0,0-2.82,2.83Zm2.13-2.55a.69.69,0,0,1,.69-.69h2.55a.69.69,0,0,1,.69.69v2.55a.69.69,0,0,1-.69.69h-2.55a.69.69,0,0,1-.69-.69Z"/>
        <path class="cls-1" d="M225.11,270.55h2.55a2.83,2.83,0,0,0,2.83-2.82v-2.55a2.83,2.83,0,0,0-2.83-2.83h-2.55a2.83,2.83,0,0,0-2.82,2.83v2.55A2.82,2.82,0,0,0,225.11,270.55Zm-.69-5.37a.7.7,0,0,1,.69-.7h2.55a.7.7,0,0,1,.69.7v2.55a.69.69,0,0,1-.69.69h-2.55a.69.69,0,0,1-.69-.69Z"/>
        <path class="cls-1" d="M232.67,277.27a2.83,2.83,0,0,0,2.83,2.82h2.55a2.83,2.83,0,0,0,2.82-2.82v-2.55a2.83,2.83,0,0,0-2.82-2.83H235.5a2.83,2.83,0,0,0-2.83,2.83Zm2.14-2.55a.69.69,0,0,1,.69-.69h2.55a.69.69,0,0,1,.69.69v2.55a.69.69,0,0,1-.69.69H235.5a.69.69,0,0,1-.69-.69Z"/>
        <path class="cls-1" d="M235.5,270.55h2.55a2.83,2.83,0,0,0,2.82-2.82v-2.55a2.83,2.83,0,0,0-2.82-2.83H235.5a2.83,2.83,0,0,0-2.83,2.83v2.55A2.83,2.83,0,0,0,235.5,270.55Zm-.69-5.37a.7.7,0,0,1,.69-.7h2.55a.7.7,0,0,1,.69.7v2.55a.69.69,0,0,1-.69.69H235.5a.69.69,0,0,1-.69-.69Z"/>
        <path class="cls-1" d="M243.06,277.27a2.83,2.83,0,0,0,2.82,2.82h2.55a2.83,2.83,0,0,0,2.83-2.82v-2.55a2.83,2.83,0,0,0-2.83-2.83h-2.55a2.83,2.83,0,0,0-2.82,2.83Zm2.13-2.55a.69.69,0,0,1,.69-.69h2.55a.7.7,0,0,1,.7.69v2.55a.7.7,0,0,1-.7.69h-2.55a.69.69,0,0,1-.69-.69Z"/>
        <path class="cls-1" d="M245.88,270.59h2.55a2.83,2.83,0,0,0,2.83-2.82v-2.55a2.83,2.83,0,0,0-2.83-2.83h-2.55a2.83,2.83,0,0,0-2.82,2.83v2.55A2.82,2.82,0,0,0,245.88,270.59Zm-.69-5.37a.69.69,0,0,1,.69-.69h2.55a.7.7,0,0,1,.7.69v2.55a.7.7,0,0,1-.7.69h-2.55a.69.69,0,0,1-.69-.69Z"/>
        <path class="cls-1" d="M253.44,277.27a2.83,2.83,0,0,0,2.83,2.82h2.55a2.82,2.82,0,0,0,2.82-2.82v-2.55a2.83,2.83,0,0,0-2.82-2.83h-2.55a2.83,2.83,0,0,0-2.83,2.83Zm2.14-2.55a.69.69,0,0,1,.69-.69h2.55a.69.69,0,0,1,.69.69v2.55a.69.69,0,0,1-.69.69h-2.55a.69.69,0,0,1-.69-.69Z"/>
        <path class="cls-1" d="M256.27,270.59h2.55a2.82,2.82,0,0,0,2.82-2.82v-2.55a2.83,2.83,0,0,0-2.82-2.83h-2.55a2.83,2.83,0,0,0-2.83,2.83v2.55A2.83,2.83,0,0,0,256.27,270.59Zm-.69-5.37a.69.69,0,0,1,.69-.69h2.55a.69.69,0,0,1,.69.69v2.55a.69.69,0,0,1-.69.69h-2.55a.69.69,0,0,1-.69-.69Z"/>
        <path class="cls-1" d="M263.83,277.27a2.83,2.83,0,0,0,2.83,2.82h2.55a2.83,2.83,0,0,0,2.82-2.82v-2.55a2.83,2.83,0,0,0-2.82-2.83h-2.55a2.83,2.83,0,0,0-2.83,2.83Zm2.13-2.55a.69.69,0,0,1,.7-.69h2.55a.69.69,0,0,1,.69.69v2.55a.69.69,0,0,1-.69.69h-2.55a.69.69,0,0,1-.7-.69Z"/>
        <path class="cls-1" d="M266.66,270.55h2.55a2.83,2.83,0,0,0,2.82-2.82v-2.55a2.83,2.83,0,0,0-2.82-2.83h-2.55a2.83,2.83,0,0,0-2.83,2.83v2.55A2.83,2.83,0,0,0,266.66,270.55Zm-.7-5.37a.7.7,0,0,1,.7-.7h2.55a.7.7,0,0,1,.69.7v2.55a.69.69,0,0,1-.69.69h-2.55a.69.69,0,0,1-.7-.69Z"/>
        <path class="cls-1" d="M274.22,277.27a2.83,2.83,0,0,0,2.82,2.82h2.55a2.83,2.83,0,0,0,2.83-2.82v-2.55a2.83,2.83,0,0,0-2.83-2.83H277a2.83,2.83,0,0,0-2.82,2.83Zm2.13-2.55A.69.69,0,0,1,277,274h2.55a.69.69,0,0,1,.69.69v2.55a.69.69,0,0,1-.69.69H277a.69.69,0,0,1-.69-.69Z"/>
        <path class="cls-1" d="M277,270.55h2.55a2.83,2.83,0,0,0,2.83-2.82v-2.55a2.83,2.83,0,0,0-2.83-2.83H277a2.83,2.83,0,0,0-2.82,2.83v2.55A2.83,2.83,0,0,0,277,270.55Zm-.69-5.37a.7.7,0,0,1,.69-.7h2.55a.7.7,0,0,1,.69.7v2.55a.69.69,0,0,1-.69.69H277a.69.69,0,0,1-.69-.69Z"/>
        <path class="cls-1" d="M284.6,277.27a2.83,2.83,0,0,0,2.83,2.82H290a2.82,2.82,0,0,0,2.82-2.82v-2.55a2.83,2.83,0,0,0-2.82-2.83h-2.55a2.83,2.83,0,0,0-2.83,2.83Zm2.14-2.55a.69.69,0,0,1,.69-.69H290a.69.69,0,0,1,.69.69v2.55a.69.69,0,0,1-.69.69h-2.55a.69.69,0,0,1-.69-.69Z"/>
        <path class="cls-1" d="M287.43,270.59H290a2.82,2.82,0,0,0,2.82-2.82v-2.55a2.83,2.83,0,0,0-2.82-2.83h-2.55a2.83,2.83,0,0,0-2.83,2.83v2.55A2.83,2.83,0,0,0,287.43,270.59Zm-.69-5.37a.69.69,0,0,1,.69-.69H290a.69.69,0,0,1,.69.69v2.55a.69.69,0,0,1-.69.69h-2.55a.69.69,0,0,1-.69-.69Z"/>
        <path class="cls-1" d="M191.13,286.77a2.83,2.83,0,0,0,2.82,2.82h2.55a2.83,2.83,0,0,0,2.83-2.82v-2.55a2.83,2.83,0,0,0-2.83-2.83H194a2.83,2.83,0,0,0-2.82,2.83Zm2.13-2.55a.7.7,0,0,1,.69-.7h2.55a.7.7,0,0,1,.69.7v2.55a.69.69,0,0,1-.69.69H194a.69.69,0,0,1-.69-.69Z"/>
        <path class="cls-1" d="M201.51,286.77a2.83,2.83,0,0,0,2.83,2.82h2.55a2.82,2.82,0,0,0,2.82-2.82v-2.55a2.83,2.83,0,0,0-2.82-2.83h-2.55a2.83,2.83,0,0,0-2.83,2.83Zm2.14-2.55a.7.7,0,0,1,.69-.7h2.55a.7.7,0,0,1,.69.7v2.55a.69.69,0,0,1-.69.69h-2.55a.69.69,0,0,1-.69-.69Z"/>
        <path class="cls-1" d="M211.9,286.77a2.83,2.83,0,0,0,2.83,2.82h2.54a2.83,2.83,0,0,0,2.83-2.82v-2.55a2.83,2.83,0,0,0-2.83-2.83h-2.54a2.83,2.83,0,0,0-2.83,2.83Zm2.13-2.55a.7.7,0,0,1,.7-.7h2.54a.7.7,0,0,1,.7.7v2.55a.69.69,0,0,1-.7.69h-2.54a.69.69,0,0,1-.7-.69Z"/>
        <path class="cls-1" d="M222.29,286.77a2.82,2.82,0,0,0,2.82,2.82h2.55a2.83,2.83,0,0,0,2.83-2.82v-2.55a2.83,2.83,0,0,0-2.83-2.83h-2.55a2.83,2.83,0,0,0-2.82,2.83Zm2.13-2.55a.7.7,0,0,1,.69-.7h2.55a.7.7,0,0,1,.69.7v2.55a.69.69,0,0,1-.69.69h-2.55a.69.69,0,0,1-.69-.69Z"/>
        <path class="cls-1" d="M232.67,286.77a2.83,2.83,0,0,0,2.83,2.82h2.55a2.83,2.83,0,0,0,2.82-2.82v-2.55a2.83,2.83,0,0,0-2.82-2.83H235.5a2.83,2.83,0,0,0-2.83,2.83Zm2.14-2.55a.7.7,0,0,1,.69-.7h2.55a.7.7,0,0,1,.69.7v2.55a.69.69,0,0,1-.69.69H235.5a.69.69,0,0,1-.69-.69Z"/>
        <path class="cls-1" d="M243.06,286.77a2.83,2.83,0,0,0,2.82,2.82h2.55a2.83,2.83,0,0,0,2.83-2.82v-2.55a2.83,2.83,0,0,0-2.83-2.83h-2.55a2.83,2.83,0,0,0-2.82,2.83Zm2.13-2.55a.7.7,0,0,1,.69-.7h2.55a.71.71,0,0,1,.7.7v2.55a.7.7,0,0,1-.7.69h-2.55a.69.69,0,0,1-.69-.69Z"/>
        <path class="cls-1" d="M253.44,286.77a2.83,2.83,0,0,0,2.83,2.82h2.55a2.82,2.82,0,0,0,2.82-2.82v-2.55a2.83,2.83,0,0,0-2.82-2.83h-2.55a2.83,2.83,0,0,0-2.83,2.83Zm2.14-2.55a.7.7,0,0,1,.69-.7h2.55a.7.7,0,0,1,.69.7v2.55a.69.69,0,0,1-.69.69h-2.55a.69.69,0,0,1-.69-.69Z"/>
        <path class="cls-1" d="M263.83,286.77a2.83,2.83,0,0,0,2.83,2.82h2.55a2.83,2.83,0,0,0,2.82-2.82v-2.55a2.83,2.83,0,0,0-2.82-2.83h-2.55a2.83,2.83,0,0,0-2.83,2.83Zm2.13-2.55a.7.7,0,0,1,.7-.7h2.55a.7.7,0,0,1,.69.7v2.55a.69.69,0,0,1-.69.69h-2.55a.69.69,0,0,1-.7-.69Z"/>
        <path class="cls-1" d="M274.22,286.77a2.83,2.83,0,0,0,2.82,2.82h2.55a2.83,2.83,0,0,0,2.83-2.82v-2.55a2.83,2.83,0,0,0-2.83-2.83H277a2.83,2.83,0,0,0-2.82,2.83Zm2.13-2.55a.7.7,0,0,1,.69-.7h2.55a.7.7,0,0,1,.69.7v2.55a.69.69,0,0,1-.69.69H277a.69.69,0,0,1-.69-.69Z"/>
        <path class="cls-1" d="M2.6,142.82,0,167.57l22.73,10.12L39.38,159.2,26.94,137.65Zm19.58,32.29-19.9-8.86,2.28-21.66,21.31-4.53,10.89,18.86Z"/>
        <path class="cls-1" d="M284,118.89l11.43-9.57,14.36,4-5.56-13.83,8.24-12.43-14.87,1L288.3,76.41l-3.62,14.46-14,5.21L283.34,104Zm2.49-26.42,2.85-11.35,7.28,9.17,11.68-.8-6.47,9.75,4.37,10.86L294.91,107l-9,7.51-.51-11.7-9.91-6.21Z"/>
        <path class="cls-1" d="M240.68,33.86a16.93,16.93,0,1,0-16.93-16.93A17,17,0,0,0,240.68,33.86Zm0-31.73a14.8,14.8,0,1,1-14.8,14.8A14.82,14.82,0,0,1,240.68,2.13Z"/>
        <path class="cls-1" d="M106.79,117.52a10.41,10.41,0,1,0,10.4,10.41A10.42,10.42,0,0,0,106.79,117.52Zm0,18.68a8.28,8.28,0,1,1,8.27-8.27A8.28,8.28,0,0,1,106.79,136.2Z"/>
        <path class="cls-1" d="M63.05,53.21,40,39.9,26.7,63l23,13.31Zm-33.44,9L40.78,42.82,60.13,54,49,73.35Z"/>
        <path class="cls-1" d="M392.51,71.52l-8.82,32.79,32.8-8.75Zm1.1,4.13,18.76,18.8-25.66,6.84Z"/>
        <path class="cls-1" d="M354.41,144.23l-9.21,10.84L350,168.46,364,171l9.21-10.84-4.78-13.39Zm8.73,24.47-11.57-2.12-3.95-11.07,7.62-9,11.56,2.12,3.95,11.07Z"/>
        <path class="cls-1" d="M474.33,144.2l-25.73-4.9-17.11,19.84,8.62,24.73,25.74,4.9L483,168.94ZM465,186.44,441.72,182l-7.81-22.4,15.5-18,23.32,4.44,7.8,22.41Z"/>
        <path class="cls-1" d="M158,64.61l6.25,7.92,2.48-9.78,9.47-3.49-8.53-5.39-.4-10.09-7.76,6.46-9.72-2.74,3.74,9.37-5.6,8.4Zm-4.63-13.89L160,52.59l5.3-4.4.27,6.88,5.83,3.68L165,61.14l-1.69,6.68L159,62.41l-6.88.45L156,57.13Z"/>
        <rect class="cls-1" x="16.47" y="222.16" width="2.13" height="29.86" transform="translate(-156.44 75.07) rotate(-42.81)"/>
        <rect class="cls-1" x="329.04" y="219.98" width="24.47" height="2.13" transform="translate(-65.29 227.14) rotate(-33.79)"/>
        <path class="cls-1" d="M84.48,249.67c-1.2,0-2.36.05-3.51.12l-7.22-14.6c0-.05,0-.11-.07-.16h0l-3.52-7.12s0,0,0,0h0l0,0h0c-1.35-2.36-5.88-2.51-10.59-.34-3.19,1.46-5.59,3.64-6.26,5.67a3.15,3.15,0,0,0,.13,2.53h0L62.76,255c-3,2-4.63,4.47-4.63,7.06v7.75c-1.34-.09-9.33-.39-14.27,4.15a12.32,12.32,0,0,0-3.83,9.5v13a12.3,12.3,0,0,0,3.83,9.49c4,3.72,10.15,4.19,13,4.19.62,0,1.07,0,1.31,0v4.52c0,6.92,11.57,12.34,26.35,12.34s26.34-5.42,26.34-12.34V262C110.82,255.09,99.25,249.67,84.48,249.67ZM72.93,270.93,60.14,244.71a8.78,8.78,0,0,0,1.17.1,15.4,15.4,0,0,0,6.26-1.54,13.5,13.5,0,0,0,5.62-4.4L89.56,272c-1.65.16-3.34.24-5.08.24A51.11,51.11,0,0,1,72.93,270.93Zm-3.28-39.21,2.17,4.39a1.1,1.1,0,0,1,0,.82c-.4,1.2-2.14,3-5.13,4.41-4,1.83-7.32,1.54-7.87.53l0,0-2.11-4.31a9.78,9.78,0,0,0,1.11.09A15.4,15.4,0,0,0,64,236.13,13.52,13.52,0,0,0,69.65,231.72Zm-14.38,2.13c.4-1.21,2.14-3,5.13-4.41a13.24,13.24,0,0,1,5.4-1.34c1.29,0,2.19.32,2.45.8l0,0a1.13,1.13,0,0,1,0,.87c-.4,1.2-2.14,3-5.12,4.41-4,1.83-7.32,1.54-7.87.53h0A1.11,1.11,0,0,1,55.27,233.85Zm8.43,23,6.48,13.3c-6-1.88-9.92-4.86-9.92-8.16C60.26,259.83,62,258.07,63.7,256.87ZM48.93,291.81v-6.36A5.71,5.71,0,0,1,50.69,281c2.63-2.42,7.38-2.07,7.44-2.07v20.94c-.06,0-4.81.37-7.44-2.06a5.71,5.71,0,0,1-1.76-4.48ZM45.3,304.3a10.27,10.27,0,0,1-3.13-7.92v-13a10.25,10.25,0,0,1,3.13-7.92c4.58-4.22,12.71-3.6,12.83-3.59v4.87c-1-.06-5.83-.18-8.88,2.62a7.84,7.84,0,0,0-2.46,6.06v7.85a7.87,7.87,0,0,0,2.46,6.06c2.56,2.35,6.39,2.64,8.14,2.64l.74,0v5.9C58,307.89,49.88,308.51,45.3,304.3Zm39.18,20.45c-13.13,0-24.22-4.68-24.22-10.21V267c4,4.39,13.22,7.4,24.22,7.4s20.21-3,24.21-7.4v47.59C108.69,320.07,97.6,324.75,84.48,324.75Zm7.33-53L82,251.89c.82,0,1.63-.09,2.47-.09,13.12,0,24.21,4.68,24.21,10.21C108.69,266.47,101.48,270.36,91.81,271.71Z"/>
        <rect class="cls-1" x="200.68" y="95.74" width="2.13" height="21.85" transform="translate(12.84 234.69) rotate(-61.99)"/>
        <path class="cls-1" d="M106,211.86l9.47-20.62L91,192.49Zm-.47-4.09L95.18,194.41l16.87-.86Z"/>
        <path class="cls-1" d="M412.26,215.11l14.47-8.36-8.36-14.46-14.46,8.35ZM423.81,206,413,212.19l-6.22-10.77,10.77-6.22Z"/>
        <path class="cls-1" d="M426.79,229.48H405.2a15.39,15.39,0,0,0-15.37,15.37v60.9h-.29v2.14h.29v.1a15.39,15.39,0,0,0,15.37,15.37h21.59A15.38,15.38,0,0,0,442.16,308V244.85A15.39,15.39,0,0,0,426.79,229.48Zm-21.59,2.13h21.59A13.26,13.26,0,0,1,440,243.83H392A13.25,13.25,0,0,1,405.2,231.61Zm21.59,89.62H405.2A13.25,13.25,0,0,1,392,308v-.1h47.76v-2.14H392V246H440v62A13.26,13.26,0,0,1,426.79,321.23Z"/>
        <rect class="cls-1" x="395.28" y="281.18" width="12.06" height="2.13"/>
        <rect class="cls-1" x="412.01" y="281.18" width="12.06" height="2.13"/>
        <rect class="cls-1" x="428.49" y="281.18" width="7.14" height="2.13"/>
        <path class="cls-1" d="M416,309.73a4.68,4.68,0,1,0,4.68,4.68A4.69,4.69,0,0,0,416,309.73Zm0,7.23a2.55,2.55,0,1,1,2.55-2.55A2.55,2.55,0,0,1,416,317Z"/>
        <path class="cls-1" d="M415.7,256.84H395.47v20.23H415.7Zm-2.13,18.1h-16V259h16Z"/>
        <rect class="cls-1" x="418.66" y="274.94" width="6.56" height="2.13"/>
        <rect class="cls-1" x="429.07" y="274.94" width="6.55" height="2.13"/>
        <rect class="cls-1" x="424.12" y="286.94" width="12.06" height="2.13"/>
        <rect class="cls-1" x="407.39" y="286.94" width="12.06" height="2.13"/>
        <rect class="cls-1" x="395.82" y="286.94" width="7.14" height="2.13"/>
      </g>
    </g>
  </g>
</svg>
