<svg id="Layer_1" data-name="Layer 1" xmlns="http://www.w3.org/2000/svg" viewBox="0 0 493.14 354.87">
  <defs>
    <style>
      .cls-1 {
        fill: #745fff;
      }
    </style>
  </defs>
  <g>
    <path class="cls-1" d="M183.88,258h94.18a36.22,36.22,0,0,0,36.18-36.18V187.7a36.22,36.22,0,0,0-36.18-36.18H183.88A36.22,36.22,0,0,0,147.7,187.7v34.1A36.22,36.22,0,0,0,183.88,258Zm-34-70.28a34,34,0,0,1,34-34h94.18a34,34,0,0,1,34,34v34.1a34,34,0,0,1-34,34H183.88a34,34,0,0,1-34-34Z"/>
    <path class="cls-1" d="M202.32,243.09h61.3a29.19,29.19,0,0,0,29.16-29.16V195.57a29.19,29.19,0,0,0-29.16-29.16h-61.3a29.19,29.19,0,0,0-29.16,29.16v18.36A29.19,29.19,0,0,0,202.32,243.09Zm-27-47.52a27,27,0,0,1,27-27h61.3a27,27,0,0,1,27,27v18.36a27,27,0,0,1-27,27h-61.3a27,27,0,0,1-27-27Z"/>
    <path class="cls-1" d="M294.26,301c11.35-1.15,11.62-13.81,11.62-13.95V282.2h0v-4.81c0-.13-.27-12.8-11.73-13.95H170.62v0h-3.77c-6.16.62-7.85,6.43-7.88,9.42V280h0v3.14c0,3,1.73,8.79,8,9.42h22v-2.18h-21.9c-5.75-.58-5.92-7-5.92-7.25V280h0v-7.15c0-.27.17-6.68,5.81-7.26H294c9.41.95,9.67,11.36,9.67,11.79v4.85h0V287c0,.45-.27,10.85-9.57,11.8H172.87V301H288.49Z"/>
    <path class="cls-1" d="M214.75,315.57V325a11.16,11.16,0,0,0,11.15,11.16h18.74A11.17,11.17,0,0,0,255.8,325v-9.46a11.17,11.17,0,0,0-11.16-11.16H225.46c-.7,0-6.69,0-9.27,2.58a3.84,3.84,0,0,0-1.2,2.81h2.18a1.65,1.65,0,0,1,.56-1.26c1.64-1.64,6-1.94,7.72-2h19.19a9,9,0,0,1,9,9V325a9,9,0,0,1-9,9H225.9a9,9,0,0,1-9-9v-9.46Z"/>
    <path class="cls-1" d="M148.66,326.29l-2.12.48c2.66,11.78,17,28.1,36.92,28.1h98V352.7h-98C163.08,352.7,150.74,335.5,148.66,326.29Z"/>
    <path class="cls-1" d="M281.51,352.69v2.18c20.3,0,34.5-16.33,36.93-28.12l-2.13-.44C314.08,337.09,300.4,352.69,281.51,352.69Z"/>
    <path class="cls-1" d="M347.59,264.31l-20.42,0v0h-13c-1.16-4.59-3.19-9.49-6.77-12.43l-1.38,1.68c7.22,5.94,7.49,21.89,7.5,22v27.21a41,41,0,0,1-40.89,40.89H192.25a40.94,40.94,0,0,1-40.88-40.89v-27.2c.09-12.69,7.07-20.07,7.14-20.14L157,254c-.31.32-7.66,8-7.76,21.65v27.21a43.11,43.11,0,0,0,43.06,43.06h80.42a43.11,43.11,0,0,0,43.06-43.06V275.59a53.1,53.1,0,0,0-1-9.1h9.05v0l23.81,0c9.32.29,24.11,2.76,24.11,8.13,0,6-15.57,7.94-21.55,8.17-2.59,0-15.52.6-15.52,6.35a4.37,4.37,0,0,0,1.25,3.28c1.15,1.12,2.93,1.52,5.16,1.63a18.08,18.08,0,0,0-9.34,15.82v7.79a18.08,18.08,0,0,0,36,2.55h.12c0-.21,0-.42,0-.63a17.37,17.37,0,0,0,.11-1.92v-7.79a18.1,18.1,0,0,0-17-18v-.06h-1.09c-1.36,0-2.67,0-3.92.08-3.88.11-7.23.21-8.48-1a2.2,2.2,0,0,1-.58-1.72c0-2.67,8-4.07,13.4-4.18,2.43-.09,23.67-1.14,23.67-10.34S350.31,264.39,347.59,264.31ZM348.67,294v8.45a17.84,17.84,0,0,0-14.83,10.26v-2.86A15.92,15.92,0,0,1,348.67,294Zm1.09,39.55a15.92,15.92,0,0,1-15.69-13.36h.28a15.61,15.61,0,0,1,31.21-.74A15.94,15.94,0,0,1,349.76,333.57Zm15.91-23.7v2a17.8,17.8,0,0,0-14.82-9.38V294A15.92,15.92,0,0,1,365.67,309.87Z"/>
    <path class="cls-1" d="M233.57,164.85a3.91,3.91,0,1,0-3.9-3.9A3.91,3.91,0,0,0,233.57,164.85Zm0-5.63a1.73,1.73,0,1,1-1.72,1.73A1.73,1.73,0,0,1,233.57,159.22Z"/>
    <path class="cls-1" d="M201.1,225.83a9.18,9.18,0,0,0,5.75,2.31,6.71,6.71,0,0,0,4.71-2h0l0,0a1.79,1.79,0,0,0,.14-.13h0c3.84-3.7,1.85-8.35.19-10.37l-10.18-10.86L211.53,194c1.66-2,3.71-6.81-.19-10.51l0,0c-3.91-3.91-8.67-1.59-10.69.22L189,195.43a13.67,13.67,0,0,0-4.09,8.95c-.07,3.39,1.43,6.64,4.44,9.66ZM190.47,197l11.7-11.7c.17-.15,4.18-3.63,7.59-.31h0c3.57,3.26.24,7.47.13,7.6L198.7,204.88l1.19,1.09,10.4,11.09c.14.17,3.36,4.22-.17,7.47s-7.4-.18-7.52-.28L190.85,212.5c-2.57-2.58-3.85-5.29-3.8-8.05A11.6,11.6,0,0,1,190.47,197Z"/>
    <path class="cls-1" d="M226.81,206.51l6.29,15.3c.92,1.92,3.35,4.85,6.92,4.85a7.4,7.4,0,0,0,2.84-.6h0c4.93-2.42,4.32-7.63,3.27-10.1L239,201.15l-6.13-14.93c-1.14-2.39-4.64-6.36-9.76-4.26h0c-5,2.4-4.33,7.63-3.26,10.1ZM224,184c4.44-1.79,6.8,3,6.87,3.14L237,201.94h0l0,.05.11.28h0l7,14.58c.08.21,2.05,5.12-2.22,7.23-4.39,1.72-6.76-3-6.83-3.15l-6.32-15.37h0l-7-14.41C221.73,191,219.74,186.08,224,184Z"/>
    <path class="cls-1" d="M254.2,226h0a1.79,1.79,0,0,0,.14.13l0,0h0a6.66,6.66,0,0,0,4.7,2,9.17,9.17,0,0,0,5.8-2.35L276.63,214c3-3,4.51-6.27,4.44-9.66a13.65,13.65,0,0,0-4.06-8.92l-11.79-11.78c-2-1.77-6.73-4.08-10.64-.18l0,0c-3.9,3.7-1.85,8.48-.15,10.55l9.74,10.7L254,215.68C252.35,217.64,250.36,222.29,254.2,226Zm1.4-8.88L266.05,206l1.19-1.09-11.15-12.23c-.14-.18-3.47-4.39.1-7.65h0c3.4-3.32,7.42.16,7.55.27L275.5,197a11.48,11.48,0,0,1,3.39,7.4c.06,2.77-1.22,5.49-3.8,8.07l-11.71,11.7c-.17.16-4.14,3.64-7.56.33S255.51,217.23,255.6,217.11Z"/>
    <path class="cls-1" d="M168.83,277.62h-2.6a2.9,2.9,0,0,0-2.89,2.89v2.6a2.9,2.9,0,0,0,2.89,2.89h2.6a2.89,2.89,0,0,0,2.88-2.89v-2.6A2.89,2.89,0,0,0,168.83,277.62Zm.71,5.49a.71.71,0,0,1-.71.71h-2.6a.71.71,0,0,1-.71-.71v-2.6a.71.71,0,0,1,.71-.71h2.6a.71.71,0,0,1,.71.71Z"/>
    <path class="cls-1" d="M171.71,270.81a2.88,2.88,0,0,0-2.88-2.88h-2.6a2.89,2.89,0,0,0-2.89,2.88v2.6a2.9,2.9,0,0,0,2.89,2.89h2.6a2.89,2.89,0,0,0,2.88-2.89Zm-2.17,2.6a.71.71,0,0,1-.71.71h-2.6a.71.71,0,0,1-.71-.71v-2.6a.71.71,0,0,1,.71-.71h2.6a.71.71,0,0,1,.71.71Z"/>
    <path class="cls-1" d="M179.44,277.62h-2.61a2.89,2.89,0,0,0-2.88,2.89v2.6a2.89,2.89,0,0,0,2.88,2.89h2.61a2.89,2.89,0,0,0,2.88-2.89v-2.6A2.89,2.89,0,0,0,179.44,277.62Zm.7,5.49a.71.71,0,0,1-.7.71h-2.61a.71.71,0,0,1-.71-.71v-2.6a.71.71,0,0,1,.71-.71h2.61a.71.71,0,0,1,.7.71Z"/>
    <path class="cls-1" d="M182.32,270.81a2.88,2.88,0,0,0-2.88-2.88h-2.61a2.88,2.88,0,0,0-2.88,2.88v2.6a2.89,2.89,0,0,0,2.88,2.89h2.61a2.89,2.89,0,0,0,2.88-2.89Zm-2.18,2.6a.71.71,0,0,1-.7.71h-2.61a.71.71,0,0,1-.71-.71v-2.6a.71.71,0,0,1,.71-.71h2.61a.71.71,0,0,1,.7.71Z"/>
    <path class="cls-1" d="M184.55,283.11a2.9,2.9,0,0,0,2.89,2.89H190a2.89,2.89,0,0,0,2.88-2.89v-2.6a2.89,2.89,0,0,0-2.88-2.89h-2.6a2.9,2.9,0,0,0-2.89,2.89Zm2.18-2.6a.71.71,0,0,1,.71-.71H190a.71.71,0,0,1,.71.71v2.6a.71.71,0,0,1-.71.71h-2.6a.71.71,0,0,1-.71-.71Z"/>
    <path class="cls-1" d="M187.44,276.3H190a2.89,2.89,0,0,0,2.88-2.89v-2.6a2.88,2.88,0,0,0-2.88-2.88h-2.6a2.89,2.89,0,0,0-2.89,2.88v2.6A2.9,2.9,0,0,0,187.44,276.3Zm-.71-5.49a.71.71,0,0,1,.71-.71H190a.71.71,0,0,1,.71.71v2.6a.71.71,0,0,1-.71.71h-2.6a.71.71,0,0,1-.71-.71Z"/>
    <path class="cls-1" d="M195.16,283.11A2.89,2.89,0,0,0,198,286h2.61a2.89,2.89,0,0,0,2.88-2.89v-2.6a2.89,2.89,0,0,0-2.88-2.89H198a2.89,2.89,0,0,0-2.88,2.89Zm2.17-2.6a.71.71,0,0,1,.71-.71h2.61a.7.7,0,0,1,.7.71v2.6a.7.7,0,0,1-.7.71H198a.71.71,0,0,1-.71-.71Z"/>
    <path class="cls-1" d="M198,276.3h2.61a2.89,2.89,0,0,0,2.88-2.89v-2.6a2.88,2.88,0,0,0-2.88-2.88H198a2.88,2.88,0,0,0-2.88,2.88v2.6A2.89,2.89,0,0,0,198,276.3Zm-.71-5.49a.71.71,0,0,1,.71-.71h2.61a.7.7,0,0,1,.7.71v2.6a.7.7,0,0,1-.7.71H198a.71.71,0,0,1-.71-.71Z"/>
    <path class="cls-1" d="M205.76,283.11a2.9,2.9,0,0,0,2.89,2.89h2.6a2.9,2.9,0,0,0,2.89-2.89v-2.6a2.9,2.9,0,0,0-2.89-2.89h-2.6a2.9,2.9,0,0,0-2.89,2.89Zm2.18-2.6a.71.71,0,0,1,.71-.71h2.6a.71.71,0,0,1,.71.71v2.6a.71.71,0,0,1-.71.71h-2.6a.71.71,0,0,1-.71-.71Z"/>
    <path class="cls-1" d="M208.65,276.26h2.6a2.9,2.9,0,0,0,2.89-2.89v-2.6a2.9,2.9,0,0,0-2.89-2.89h-2.6a2.9,2.9,0,0,0-2.89,2.89v2.6A2.9,2.9,0,0,0,208.65,276.26Zm-.71-5.49a.71.71,0,0,1,.71-.71h2.6a.71.71,0,0,1,.71.71v2.6a.71.71,0,0,1-.71.71h-2.6a.71.71,0,0,1-.71-.71Z"/>
    <path class="cls-1" d="M216.37,283.11a2.89,2.89,0,0,0,2.88,2.89h2.61a2.89,2.89,0,0,0,2.88-2.89v-2.6a2.89,2.89,0,0,0-2.88-2.89h-2.61a2.89,2.89,0,0,0-2.88,2.89Zm2.18-2.6a.7.7,0,0,1,.7-.71h2.61a.7.7,0,0,1,.7.71v2.6a.7.7,0,0,1-.7.71h-2.61a.7.7,0,0,1-.7-.71Z"/>
    <path class="cls-1" d="M219.25,276.26h2.61a2.89,2.89,0,0,0,2.88-2.89v-2.6a2.89,2.89,0,0,0-2.88-2.89h-2.61a2.89,2.89,0,0,0-2.88,2.89v2.6A2.89,2.89,0,0,0,219.25,276.26Zm-.7-5.49a.7.7,0,0,1,.7-.71h2.61a.7.7,0,0,1,.7.71v2.6a.7.7,0,0,1-.7.71h-2.61a.7.7,0,0,1-.7-.71Z"/>
    <path class="cls-1" d="M227,283.11a2.9,2.9,0,0,0,2.89,2.89h2.6a2.9,2.9,0,0,0,2.89-2.89v-2.6a2.9,2.9,0,0,0-2.89-2.89h-2.6a2.9,2.9,0,0,0-2.89,2.89Zm2.18-2.6a.71.71,0,0,1,.71-.71h2.6a.71.71,0,0,1,.71.71v2.6a.71.71,0,0,1-.71.71h-2.6a.71.71,0,0,1-.71-.71Z"/>
    <path class="cls-1" d="M229.86,276.26h2.6a2.9,2.9,0,0,0,2.89-2.89v-2.6a2.9,2.9,0,0,0-2.89-2.89h-2.6a2.9,2.9,0,0,0-2.89,2.89v2.6A2.9,2.9,0,0,0,229.86,276.26Zm-.71-5.49a.71.71,0,0,1,.71-.71h2.6a.71.71,0,0,1,.71.71v2.6a.71.71,0,0,1-.71.71h-2.6a.71.71,0,0,1-.71-.71Z"/>
    <path class="cls-1" d="M237.58,283.11a2.89,2.89,0,0,0,2.88,2.89h2.61a2.89,2.89,0,0,0,2.88-2.89v-2.6a2.89,2.89,0,0,0-2.88-2.89h-2.61a2.89,2.89,0,0,0-2.88,2.89Zm2.18-2.6a.7.7,0,0,1,.7-.71h2.61a.71.71,0,0,1,.7.71v2.6a.71.71,0,0,1-.7.71h-2.61a.7.7,0,0,1-.7-.71Z"/>
    <path class="cls-1" d="M240.46,276.26h2.61a2.89,2.89,0,0,0,2.88-2.89v-2.6a2.89,2.89,0,0,0-2.88-2.89h-2.61a2.89,2.89,0,0,0-2.88,2.89v2.6A2.89,2.89,0,0,0,240.46,276.26Zm-.7-5.49a.7.7,0,0,1,.7-.71h2.61a.71.71,0,0,1,.7.71v2.6a.71.71,0,0,1-.7.71h-2.61a.7.7,0,0,1-.7-.71Z"/>
    <path class="cls-1" d="M248.18,283.11a2.9,2.9,0,0,0,2.89,2.89h2.6a2.9,2.9,0,0,0,2.89-2.89v-2.6a2.9,2.9,0,0,0-2.89-2.89h-2.6a2.9,2.9,0,0,0-2.89,2.89Zm2.18-2.6a.71.71,0,0,1,.71-.71h2.6a.71.71,0,0,1,.71.71v2.6a.71.71,0,0,1-.71.71h-2.6a.71.71,0,0,1-.71-.71Z"/>
    <path class="cls-1" d="M251.07,276.3h2.6a2.9,2.9,0,0,0,2.89-2.89v-2.6a2.89,2.89,0,0,0-2.89-2.88h-2.6a2.89,2.89,0,0,0-2.89,2.88v2.6A2.9,2.9,0,0,0,251.07,276.3Zm-.71-5.49a.71.71,0,0,1,.71-.71h2.6a.71.71,0,0,1,.71.71v2.6a.71.71,0,0,1-.71.71h-2.6a.71.71,0,0,1-.71-.71Z"/>
    <path class="cls-1" d="M258.79,283.11a2.89,2.89,0,0,0,2.88,2.89h2.61a2.89,2.89,0,0,0,2.88-2.89v-2.6a2.89,2.89,0,0,0-2.88-2.89h-2.61a2.89,2.89,0,0,0-2.88,2.89Zm2.18-2.6a.7.7,0,0,1,.7-.71h2.61a.7.7,0,0,1,.7.71v2.6a.7.7,0,0,1-.7.71h-2.61a.7.7,0,0,1-.7-.71Z"/>
    <path class="cls-1" d="M261.67,276.3h2.61a2.89,2.89,0,0,0,2.88-2.89v-2.6a2.88,2.88,0,0,0-2.88-2.88h-2.61a2.88,2.88,0,0,0-2.88,2.88v2.6A2.89,2.89,0,0,0,261.67,276.3Zm-.7-5.49a.7.7,0,0,1,.7-.71h2.61a.7.7,0,0,1,.7.71v2.6a.7.7,0,0,1-.7.71h-2.61a.7.7,0,0,1-.7-.71Z"/>
    <path class="cls-1" d="M269.39,283.11a2.9,2.9,0,0,0,2.89,2.89h2.6a2.89,2.89,0,0,0,2.88-2.89v-2.6a2.89,2.89,0,0,0-2.88-2.89h-2.6a2.9,2.9,0,0,0-2.89,2.89Zm2.18-2.6a.71.71,0,0,1,.71-.71h2.6a.71.71,0,0,1,.71.71v2.6a.71.71,0,0,1-.71.71h-2.6a.71.71,0,0,1-.71-.71Z"/>
    <path class="cls-1" d="M272.28,276.26h2.6a2.89,2.89,0,0,0,2.88-2.89v-2.6a2.89,2.89,0,0,0-2.88-2.89h-2.6a2.9,2.9,0,0,0-2.89,2.89v2.6A2.9,2.9,0,0,0,272.28,276.26Zm-.71-5.49a.71.71,0,0,1,.71-.71h2.6a.71.71,0,0,1,.71.71v2.6a.71.71,0,0,1-.71.71h-2.6a.71.71,0,0,1-.71-.71Z"/>
    <path class="cls-1" d="M280,283.11a2.89,2.89,0,0,0,2.88,2.89h2.61a2.89,2.89,0,0,0,2.88-2.89v-2.6a2.89,2.89,0,0,0-2.88-2.89h-2.61a2.89,2.89,0,0,0-2.88,2.89Zm2.18-2.6a.7.7,0,0,1,.7-.71h2.61a.7.7,0,0,1,.7.71v2.6a.7.7,0,0,1-.7.71h-2.61a.7.7,0,0,1-.7-.71Z"/>
    <path class="cls-1" d="M282.88,276.26h2.61a2.89,2.89,0,0,0,2.88-2.89v-2.6a2.89,2.89,0,0,0-2.88-2.89h-2.61a2.89,2.89,0,0,0-2.88,2.89v2.6A2.89,2.89,0,0,0,282.88,276.26Zm-.7-5.49a.7.7,0,0,1,.7-.71h2.61a.7.7,0,0,1,.7.71v2.6a.7.7,0,0,1-.7.71h-2.61a.7.7,0,0,1-.7-.71Z"/>
    <path class="cls-1" d="M290.6,283.11a2.9,2.9,0,0,0,2.89,2.89h2.6a2.9,2.9,0,0,0,2.89-2.89v-2.6a2.9,2.9,0,0,0-2.89-2.89h-2.6a2.9,2.9,0,0,0-2.89,2.89Zm2.18-2.6a.71.71,0,0,1,.71-.71h2.6a.71.71,0,0,1,.71.71v2.6a.71.71,0,0,1-.71.71h-2.6a.71.71,0,0,1-.71-.71Z"/>
    <path class="cls-1" d="M293.49,276.3h2.6a2.9,2.9,0,0,0,2.89-2.89v-2.6a2.89,2.89,0,0,0-2.89-2.88h-2.6a2.89,2.89,0,0,0-2.89,2.88v2.6A2.9,2.9,0,0,0,293.49,276.3Zm-.71-5.49a.71.71,0,0,1,.71-.71h2.6a.71.71,0,0,1,.71.71v2.6a.71.71,0,0,1-.71.71h-2.6a.71.71,0,0,1-.71-.71Z"/>
    <path class="cls-1" d="M195.16,292.81A2.89,2.89,0,0,0,198,295.7h2.61a2.89,2.89,0,0,0,2.88-2.89v-2.6a2.89,2.89,0,0,0-2.88-2.89H198a2.89,2.89,0,0,0-2.88,2.89Zm2.17-2.6a.71.71,0,0,1,.71-.71h2.61a.7.7,0,0,1,.7.71v2.6a.7.7,0,0,1-.7.71H198a.71.71,0,0,1-.71-.71Z"/>
    <path class="cls-1" d="M205.76,292.81a2.9,2.9,0,0,0,2.89,2.89h2.6a2.9,2.9,0,0,0,2.89-2.89v-2.6a2.9,2.9,0,0,0-2.89-2.89h-2.6a2.9,2.9,0,0,0-2.89,2.89Zm2.18-2.6a.71.71,0,0,1,.71-.71h2.6a.71.71,0,0,1,.71.71v2.6a.71.71,0,0,1-.71.71h-2.6a.71.71,0,0,1-.71-.71Z"/>
    <path class="cls-1" d="M216.37,292.81a2.89,2.89,0,0,0,2.88,2.89h2.61a2.89,2.89,0,0,0,2.88-2.89v-2.6a2.89,2.89,0,0,0-2.88-2.89h-2.61a2.89,2.89,0,0,0-2.88,2.89Zm2.18-2.6a.7.7,0,0,1,.7-.71h2.61a.7.7,0,0,1,.7.71v2.6a.7.7,0,0,1-.7.71h-2.61a.7.7,0,0,1-.7-.71Z"/>
    <path class="cls-1" d="M227,292.81a2.9,2.9,0,0,0,2.89,2.89h2.6a2.9,2.9,0,0,0,2.89-2.89v-2.6a2.9,2.9,0,0,0-2.89-2.89h-2.6a2.9,2.9,0,0,0-2.89,2.89Zm2.18-2.6a.71.71,0,0,1,.71-.71h2.6a.71.71,0,0,1,.71.71v2.6a.71.71,0,0,1-.71.71h-2.6a.71.71,0,0,1-.71-.71Z"/>
    <path class="cls-1" d="M237.58,292.81a2.89,2.89,0,0,0,2.88,2.89h2.61a2.89,2.89,0,0,0,2.88-2.89v-2.6a2.89,2.89,0,0,0-2.88-2.89h-2.61a2.89,2.89,0,0,0-2.88,2.89Zm2.18-2.6a.7.7,0,0,1,.7-.71h2.61a.71.71,0,0,1,.7.71v2.6a.71.71,0,0,1-.7.71h-2.61a.7.7,0,0,1-.7-.71Z"/>
    <path class="cls-1" d="M248.18,292.81a2.9,2.9,0,0,0,2.89,2.89h2.6a2.9,2.9,0,0,0,2.89-2.89v-2.6a2.9,2.9,0,0,0-2.89-2.89h-2.6a2.9,2.9,0,0,0-2.89,2.89Zm2.18-2.6a.71.71,0,0,1,.71-.71h2.6a.71.71,0,0,1,.71.71v2.6a.71.71,0,0,1-.71.71h-2.6a.71.71,0,0,1-.71-.71Z"/>
    <path class="cls-1" d="M258.79,292.81a2.89,2.89,0,0,0,2.88,2.89h2.61a2.89,2.89,0,0,0,2.88-2.89v-2.6a2.89,2.89,0,0,0-2.88-2.89h-2.61a2.89,2.89,0,0,0-2.88,2.89Zm2.18-2.6a.7.7,0,0,1,.7-.71h2.61a.7.7,0,0,1,.7.71v2.6a.7.7,0,0,1-.7.71h-2.61a.7.7,0,0,1-.7-.71Z"/>
    <path class="cls-1" d="M269.39,292.81a2.9,2.9,0,0,0,2.89,2.89h2.6a2.89,2.89,0,0,0,2.88-2.89v-2.6a2.89,2.89,0,0,0-2.88-2.89h-2.6a2.9,2.9,0,0,0-2.89,2.89Zm2.18-2.6a.71.71,0,0,1,.71-.71h2.6a.71.71,0,0,1,.71.71v2.6a.71.71,0,0,1-.71.71h-2.6a.71.71,0,0,1-.71-.71Z"/>
    <path class="cls-1" d="M280,292.81a2.89,2.89,0,0,0,2.88,2.89h2.61a2.89,2.89,0,0,0,2.88-2.89v-2.6a2.89,2.89,0,0,0-2.88-2.89h-2.61a2.89,2.89,0,0,0-2.88,2.89Zm2.18-2.6a.7.7,0,0,1,.7-.71h2.61a.7.7,0,0,1,.7.71v2.6a.7.7,0,0,1-.7.71h-2.61a.7.7,0,0,1-.7-.71Z"/>
    <path class="cls-1" d="M2.66,145.83,0,171.1l23.21,10.33,17-18.88-12.71-22Zm20,33L2.33,169.75l2.33-22.11L26.41,143l11.12,19.26Z"/>
    <path class="cls-1" d="M290,121.39l11.67-9.76,14.67,4.08-5.69-14.12L319,88.9l-15.18,1L294.38,78l-3.7,14.76L276.42,98.1l12.9,8.09Zm2.54-27,2.91-11.59,7.43,9.36,11.93-.82-6.6,10,4.46,11.08-11.52-3.2L292,116.89,291.44,105,281.31,98.6Z"/>
    <path class="cls-1" d="M245.75,34.57a17.29,17.29,0,1,0-17.28-17.28A17.3,17.3,0,0,0,245.75,34.57Zm0-32.39a15.11,15.11,0,1,1-15.11,15.11A15.13,15.13,0,0,1,245.75,2.18Z"/>
    <path class="cls-1" d="M109,141.25a10.63,10.63,0,1,0-10.63-10.62A10.63,10.63,0,0,0,109,141.25Zm0-19.07a8.45,8.45,0,1,1-8.45,8.45A8.46,8.46,0,0,1,109,122.18Z"/>
    <path class="cls-1" d="M64.38,54.33,40.85,40.75,27.26,64.28,50.79,77.87ZM30.23,63.48,41.64,43.72,61.4,55.13,50,74.89Z"/>
    <path class="cls-1" d="M387.58,66.1l-9,33.47,33.49-8.93Zm1.12,4.2,19.15,19.2-26.2,7Z"/>
    <path class="cls-1" d="M361.88,147.27l-9.4,11.07L357.36,172l14.28,2.61,9.4-11.06-4.88-13.67Zm8.91,25L359,170.1l-4-11.31,7.78-9.15,11.8,2.16,4,11.31Z"/>
    <path class="cls-1" d="M484.33,147.25l-26.27-5-17.47,20.25,8.8,25.26,26.28,5,17.47-20.25Zm-9.49,43.12L451,185.84l-8-22.88,15.83-18.34,23.8,4.53,8,22.88Z"/>
    <path class="cls-1" d="M161.35,66l6.38,8.09,2.54-10,9.67-3.57L171.22,55l-.4-10.3-7.93,6.59L153,48.5l3.82,9.57-5.72,8.57Zm-4.72-14.18,6.77,1.91,5.41-4.5.28,7L175,60l-6.6,2.44-1.73,6.82-4.36-5.52-7,.45,3.9-5.85Z"/>
    <rect class="cls-1" x="335.98" y="224.62" width="24.99" height="2.18" transform="translate(-66.67 231.93) rotate(-33.79)"/>
    <path class="cls-1" d="M94.86,268c-1.21,0-2.41,0-3.58.11L83.9,253.17a1.66,1.66,0,0,0-.06-.16h0l-3.59-7.26s0,0,0,0h0l0,0h0c-1.38-2.4-6-2.56-10.82-.34-3.26,1.49-5.7,3.71-6.4,5.79a3.25,3.25,0,0,0,.14,2.59h0l9.58,19.64c-3.08,2.09-4.73,4.57-4.73,7.21v7.92c-1.37-.08-9.52-.4-14.57,4.24a12.57,12.57,0,0,0-3.91,9.69v13.25a12.57,12.57,0,0,0,3.91,9.69c4.14,3.8,10.37,4.28,13.23,4.28.63,0,1.1,0,1.34,0v4.62c0,7.06,11.82,12.59,26.9,12.59s26.9-5.53,26.9-12.59V280.56C121.76,273.5,110,268,94.86,268ZM83.07,289.68,70,262.92a9,9,0,0,0,1.19.08,15.88,15.88,0,0,0,6.39-1.56,13.78,13.78,0,0,0,5.73-4.51l16.72,33.81q-2.52.24-5.19.24A52.1,52.1,0,0,1,83.07,289.68Zm-3.35-40.05,2.22,4.48a1.15,1.15,0,0,1,0,.84c-.41,1.24-2.19,3.1-5.24,4.51-4.06,1.87-7.47,1.57-8,.54l0,0-2.14-4.39a10,10,0,0,0,1.12.07A15.75,15.75,0,0,0,74,254.14,13.76,13.76,0,0,0,79.72,249.63ZM65,251.81c.41-1.23,2.19-3.1,5.24-4.5A13.54,13.54,0,0,1,75.79,246c1.31,0,2.22.31,2.5.79l0,0a1.11,1.11,0,0,1,0,.88c-.41,1.23-2.19,3.1-5.24,4.51-4.06,1.87-7.47,1.57-8,.54A1.16,1.16,0,0,1,65,251.81Zm8.61,23.51,6.63,13.59c-6.11-1.92-10.14-5-10.14-8.35C70.14,278.34,71.91,276.55,73.65,275.32ZM58.56,311V304.5a5.86,5.86,0,0,1,1.8-4.58c2.68-2.47,7.52-2.11,7.6-2.1V319.2c-.08,0-4.91.36-7.6-2.11a5.86,5.86,0,0,1-1.8-4.58Zm-3.69,12.76a10.48,10.48,0,0,1-3.21-8.09V302.41a10.48,10.48,0,0,1,3.2-8.08c4.67-4.3,13-3.67,13.1-3.66v5c-1-.06-6-.18-9.07,2.67a8,8,0,0,0-2.51,6.19v8a8,8,0,0,0,2.51,6.19c2.61,2.4,6.52,2.7,8.31,2.7l.76,0v6C67.86,327.41,59.57,328.06,54.87,323.75Zm64.72,10.46c0,5.65-11.33,10.42-24.73,10.42s-24.72-4.77-24.72-10.42v-48.6c4.08,4.48,13.49,7.55,24.72,7.55s20.64-3.07,24.73-7.55Zm-17.24-43.74-10-20.26c.83,0,1.68-.06,2.53-.06,13.4,0,24.73,4.77,24.73,10.41C119.59,285.12,112.23,289.1,102.35,290.47Z"/>
    <rect class="cls-1" x="204.91" y="97.76" width="2.18" height="22.31" transform="translate(13.11 239.63) rotate(-61.99)"/>
    <path class="cls-1" d="M117.89,195.27l-25,1.28,15.3,19.78Zm-20.7,3.24,17.22-.88-6.67,14.52Z"/>
    <path class="cls-1" d="M416.21,238.62l8.53,14.78,14.78-8.53L431,230.09Zm9.33,11.8-6.35-11,11-6.35,6.35,11Z"/>
    <path class="cls-1" d="M440.6,29.72l-11.58,2-4.06,11,7.53,9,11.58-2,4.05-11Zm-7.41,20.14L427,42.4l3.35-9.11,9.57-1.66,6.22,7.46-3.35,9.12Z"/>
    <path class="cls-1" d="M39.11,228.2l5.47-5.42L37,221.73l-3.46-6.88-3.35,6.94L22.53,223l5.55,5.34-1.24,7.6,6.79-3.64,6.84,3.53ZM29,232.89l.85-5.19L26,224.06l5.2-.79,2.29-4.74,2.36,4.7,5.21.71-3.73,3.71.93,5.17-4.68-2.41Z"/>
  </g>
</svg>
