<svg id="Layer_1" data-name="Layer 1" xmlns="http://www.w3.org/2000/svg" viewBox="0 0 1920 700">
  <defs>
    <style>
      .cls-1 {
        fill: #9088ff;
      }
    </style>
  </defs>
  <rect class="cls-1" x="1357.48" y="379.73" width="65.23" height="4" transform="translate(-35.92 592.85) rotate(-23.78)"/>
  <rect class="cls-1" x="1027.07" y="280.03" width="4" height="47.96" transform="translate(60.49 765.81) rotate(-41.95)"/>
  <rect class="cls-1" x="26.87" y="657.74" width="47.96" height="4" transform="translate(-588.52 489.31) rotate(-70.67)"/>
  <rect class="cls-1" x="1867.56" y="30.3" width="4" height="47.96" transform="translate(93 639.12) rotate(-19.88)"/>
  <rect class="cls-1" x="790.64" y="635.12" width="70.7" height="4" transform="translate(-19.29 1248.41) rotate(-73.52)"/>
  <rect class="cls-1" x="159.13" y="104.13" width="4" height="40.16" transform="translate(-35.68 72.65) rotate(-22.95)"/>
  <rect class="cls-1" x="1346.01" y="83.96" width="40.16" height="4" transform="translate(886.28 1367.9) rotate(-73.08)"/>
  <rect class="cls-1" x="656.09" y="366.58" width="40.16" height="4" transform="translate(-14.64 28.24) rotate(-2.37)"/>
  <rect class="cls-1" x="1800.93" y="449.64" width="70.7" height="4" transform="translate(213.72 1422.83) rotate(-44.72)"/>
  <rect class="cls-1" x="289.97" y="394.15" width="4" height="65.23" transform="translate(-221.62 486.75) rotate(-62.28)"/>
  <rect class="cls-1" x="1220.81" y="560.89" width="40.16" height="4"/>
  <rect class="cls-1" x="1173.64" y="121.95" width="4" height="41.67" transform="translate(62.9 548.15) rotate(-26.94)"/>
  <rect class="cls-1" x="802.01" y="161.13" width="47.96" height="4" transform="translate(229.29 757.11) rotate(-56.04)"/>
  <rect class="cls-1" x="508.62" y="551.36" width="40.16" height="4" transform="translate(-219.29 391.36) rotate(-34.08)"/>
  <rect class="cls-1" x="437.49" y="209.59" width="4" height="40.16" transform="translate(-11.65 23.83) rotate(-3.06)"/>
  <rect class="cls-1" x="267.26" y="614.98" width="40.16" height="4" transform="translate(-388.53 697.13) rotate(-71.79)"/>
  <rect class="cls-1" x="1025.02" y="511.1" width="40.16" height="4" transform="translate(103.83 1198.31) rotate(-62.2)"/>
  <rect class="cls-1" x="1598.69" y="573.36" width="4" height="60.9" transform="translate(176.67 1551.94) rotate(-54.32)"/>
  <rect class="cls-1" x="1588.86" y="412.93" width="40.16" height="4" transform="translate(1108.97 1999.51) rotate(-86.95)"/>
  <rect class="cls-1" x="560.51" y="11.65" width="4" height="40.16" transform="translate(50.15 266.07) rotate(-27.81)"/>
  <rect class="cls-1" x="1671.33" y="206.92" width="33.23" height="4" transform="translate(199.61 1032.12) rotate(-36)"/>
  <rect class="cls-1" x="78.63" y="304.47" width="4" height="40.16" transform="translate(-68.49 25.22) rotate(-12.53)"/>
  <rect class="cls-1" x="980.24" y="64.75" width="40.16" height="4" transform="matrix(0.18, -0.98, 0.98, 0.18, 751.54, 1037.93)"/>
  <rect class="cls-1" x="1858.33" y="617.04" width="4" height="40.16" transform="translate(10.97 1305.4) rotate(-38.77)"/>
  <rect class="cls-1" x="1604.47" y="67.76" width="50.94" height="4" transform="translate(137.66 729.05) rotate(-26.29)"/>
</svg>
