<svg version="1.1" id="Layer_1" xmlns="http://www.w3.org/2000/svg" xmlns:xlink="http://www.w3.org/1999/xlink" x="0px" y="0px"
	 viewBox="0 0 500 500.1" style="enable-background:new 0 0 500 500.1;" xml:space="preserve">
<style type="text/css">
	.workoutlog1{fill:#CB2026;}
	.workoutlog2{fill:url(#SVGID_1_);}
	.workoutlog3{fill:#231F20;}
	.st3{fill:#BCBEC0;}
	.st4{fill:#414042;}
	.st5{fill:#6D6E71;}
	.st6{fill:#939598;}
	.st7{fill:#E6E7E8;}
</style>
<title>1</title>
<g id="workout-log-icon">
	<rect y="0.2" class="workoutlog1" width="500" height="499.8"/>
	
		<linearGradient id="SVGID_1_" gradientUnits="userSpaceOnUse" x1="8.0712" y1="83.9853" x2="460.5878" y2="394.6989" gradientTransform="matrix(1 0 0 -1 0 500)">
		<stop  offset="0" style="stop-color:#1F3061"/>
		<stop  offset="0.12" style="stop-color:#20356A"/>
		<stop  offset="0.7" style="stop-color:#244B94"/>
		<stop  offset="1" style="stop-color:#2553A4"/>
	</linearGradient>
	<rect y="0" class="workoutlog2" width="500" height="499.8"/>
	<path class="workoutlog3" d="M499.9,240.9c-15.3-6.8-53.4-6.6-79.1,0.6c-25.7,7.2-47.6,24-47.6,24c-30-23.1-69.6-22.3-69.6-22.3
		c-56.5,0.5-85.8,35.7-85.8,35.7s-6.9,3.1-4.4-1.2c2.6-4.3,3.2-11.3,4.2-14.6c1-3.3,1.5-9.9,1.8-23.9c0.5-19.9-12-75.3-13.3-83.5
		c-1.2-8.3,7.1-27.9,20.5-43.8c2.6-3.1,3.9-3.5,7.6-3.5s18.4,5,20.6,7.3c2.2,2.3,16.2-1,30.1,1c13.9,2,13.9-3.1,13.9-3.1
		c5.9,2,10.2,1.3,14.2,1.7c2.2,0.3,4.2-0.9,5-3c39.9,4.6,43-2.7,43-2.7c4.6,2.2,11.8-1.3,11.8-1.3c6.8-4.4,11.4-12.3,14-18.4
		c1.4-3.3,3.4-6.2,6-8.7c2.9-3,6.6-4.3,4.5-13.2c-3.5-14.3-36.8-43.1-43-48.3c-0.5-0.5-9-4.1-9-4.1c-16.5-1.4-13.6-5.5-24-7.2
		c-6-0.9-16.8,0.9-39.1,3.1c-11,1-21.3,1-35.8,3c-43.9,6-69.1,21.9-81.2,27.8s-9.6,12.7-13.8,22.9c-10.6,25.3-77,103.9-79.8,107.8
		c-2.8,3.9-26.2,55-39.6,90.8s-6.6,57.6-7.1,62.3c-0.5,4.7-8.9,12.5-10,15.6c-1.1,3.1-1,8.1,0.1,12.2c1.1,4.2,31.4,31,35.9,33.3
		c28.4,13.7,60.3,40.7,141.1,70.4c91.6,30.9,127.6,20.1,149,16.8c15.4-2.3,54.2-17.5,58.3-19.5c4.1-1.9,16.3-1.1,16.3-1.1
		c-0.5,19.5,15.4,45.6,15.4,45.6h68.8V240.9z"/>
	<polygon class="st3" points="133.3,357.7 102.3,355.2 112.8,393.5 173.2,381.4 196.6,360.4 	"/>
	<path class="st4" d="M371.9,272.9c0,0,55.3-22.9,127.9,38.7V371C499.8,371,440.8,300.4,371.9,272.9z"/>
	<polygon class="st5" points="91.5,372.7 70.1,352.1 57.1,380.8 96,402.1 116.3,408.3 158.4,390.2 166.3,383.8 104.8,384 	"/>
	<path class="st4" d="M19.4,352.5c-2.2-3.2-2.5-7.3-0.8-10.8c3.7-7.3,10.7-18.1,17.8-10.2s21.1,17.7,29,22.9
		c3.5,2.2,5.3,6.3,4.7,10.4l-0.6,4c-0.7,4.7-4.4,8.3-9.1,9l-5.1,0.7c-2.8,0.4-5.7-0.4-8-2.1l-22.8-17.4c-0.9-0.7-1.7-1.5-2.3-2.4
		L19.4,352.5z"/>
	<path class="st6" d="M372.3,271.7c0,0,54.9-25.2,127.4,36.3v24.5C499.8,332.5,446.5,270.2,372.3,271.7z"/>
	<path class="st5" d="M191.9,120.1c0,0,7.7-16.6,19.4-14.9c0,0-6.9-7.1-0.7-7.4c6.2-0.3,16.6,3.4,16.4,7.2
		c-0.2,3.9-27.4,18-25.4,54.2S191.9,120.1,191.9,120.1z"/>
	<path class="st5" d="M202,286.5c0,0,15.1-2.2,19.7-0.4s1.2,52.2-9.4,54.5c-10.6,2.2-30.9,24.8-40.9,20.9
		c-10-3.9-41.8,13.3-49.3,1.6c-7.4-11.6-7.4-56.7,2.2-56.7S202,286.5,202,286.5z"/>
	<polygon class="st4" points="138.2,401.5 179.3,385.3 214.2,395.5 202.4,429.3 137.7,404.6 	"/>
	<path class="st3" d="M372.3,271.9c0,0,54-46.3,127.4-27.3v66.6C499.8,311.2,428.7,252.9,372.3,271.9z"/>
	<path class="st5" d="M371.4,272.6c0,0,61.1-0.9,51.4,80.1s-50.5-36.9-50.5-36.9L371.4,272.6z"/>
	<path class="st4" d="M175.3,415c0,0,117.3,20.3,181.7-35.4s-91.9-42-89.8-31.2c2.1,10.8-55.7-3.6-55.7-13.7
		c0-10.1-10.1-46.3,95.6-36.2c57,5.4,139.2,42.2,139,87.5c-0.1,23.2-21.7,40.3-34.7,50.7c-69.4,55.1-175.4,31.7-233.9,2.1
		c-18.5-9.3-46.9-26.6-44.9-31.3C134.7,402.9,156.2,409.4,175.3,415z"/>
	<path class="st5" d="M185.4,371.4c0,0,68.5-28.5,109.2,8.4S201,402.3,191,398.6s-38.9-5.1-39.2-9.3
		C151.5,385.1,150.7,372.5,185.4,371.4z"/>
	<path class="st3" d="M182.7,416.5c0,0,37.8-36.9,127.8-47.3s31.5,41.2,16.2,45C311.3,417.9,260.8,435.3,182.7,416.5z"/>
	<path class="st5" d="M303.6,470.8c1.6,0.1,3.1,0.2,4.7,0.5c6.9,1.1,33.2,3.1,81.1-20.6c0,0,13.9-7.3,33.4-4.8s7.3-4.6-3.9-8
		c-11.2-3.4,6.4-14.8,6.4-14.8s-149.8,48.3-237.2,11.6S47.7,364,44.7,361.9c-3-2.1-38.1-26-24.5-7.9c13.6,18.2,34,31.4,44,35.1
		c10,3.7,100.7,65.8,194.5,78.6C258.7,467.8,287.7,470.3,303.6,470.8z"/>
	<path class="st4" d="M429.5,430.4c-1.8,13.6,0.5,35.8,16.6,63.4c2,3.7,5.9,5.4,10.3,5.4l30.6-0.9c6.4,0.2,11.8-4.9,11.9-11.3
		c0,0,0-0.1,0-0.1v-10.7c0-2.3-0.7-4.5-2-6.4c-4-5.5-15.1,11-47.8-46.4C444.7,415.3,430.7,421.4,429.5,430.4z"/>
	<path class="st5" d="M183.3,283.1c2.4-2.8,21.7-108.8,12.3-145.8s33.2,103.3,15.3,131.8c0,0-5.1,8.1-9.4,8.1c0,0,12.1-1.1,4.9,8
		c-7.2,9.1-13.8,27.6-51.9,24.5S179.7,287.3,183.3,283.1z"/>
	<path class="st6" d="M429,442.7c0,0-10.8-2.3-6.9,15.3c3.9,17.6,16.2,41.7,16.2,41.7h13C451.2,499.7,431.1,473.7,429,442.7z"/>
	<path class="st3" d="M219,28.6c-15.2-4-48.8,13.8-53.5,17.3c-3.9,2.8-6.9,6.7-8.6,11.2c-0.7,2.8,4.7,9.4-38.8,63.2
		c-42.1,52.2-44.7,61.1-44.7,61.1s-5.5,16.1,33.5,53.4c0,0,21.7,12.5,21.3,65.9s48.5,9.1,52.2,2c3.8-7,30.6-127,11-184
		c0,0,3.6-27.3-4.6-28.6c-8.2-1.2,3.1-4.8,4.4-4.7c1.3,0.1-9.3-36-1.9-38.4c7.3-2.3,8.2,9,10.8,5.4c2.7-3.6,3.8-18.3,10.8-18.6
		C218.1,33.8,219,28.6,219,28.6z"/>
	<path class="st3" d="M130,330.4c0,0,16.2-2.7,22.9-6.4c6.6-3.8-24.1-13.9-24.1-13.9L130,330.4z"/>
	<path class="st3" d="M218.9,282.6c-0.7,0.6-1.2,1.3-1.6,2c-3.1,6.4-15.9,36.3,14.5,32c34-4.8,176.6,38.7,181.5,9.1
		c6.6-39.4-68.3-69.9-81-74.5s-43.9-5-65.9,1.9C246.7,259.4,223.8,278.5,218.9,282.6z"/>
	<path class="st3" d="M167.7,360.2l1.1-1c1.9-2.1,3.6-29.3,22.3-31.1c18.8-1.8,45.3,26.7,68.6,24.4c3.8-0.4-4.2,9.2-5.8,9.6
		c-0.7,0.1-1.4,0.1-2.1,0c-21.7-1.1-44.4,1-49.3,4.5c-4.9,3.5-16.6,5-17.7,4.9C177.6,370.3,158.8,367.4,167.7,360.2z"/>
	<path class="st4" d="M89.2,370.9c0,0-51.9-17.8-59.7-50.3c-10.4-43,21.4-89.4,41.7-135.6c0,0-4.5,30.7,33.9,53.9s21.7,124,21.7,124
		S100.8,374.5,89.2,370.9z"/>
	<path class="st5" d="M127.6,282c1,3.2-1.8-34.3-29.6-56.2c-33.1-26.3-24.4-46.5-24.4-46.5s-14.8,14.6,5.6,39.5S115,242.1,127.6,282
		z"/>
	<path class="st5" d="M94,398.2c0,0,15.3,15.1,66.5-8.9c51.2-24-6,16.1-14.2,18.1c-8.2,1.9-25.2,10-32.4,7.1
		C106.6,411.7,94,398.2,94,398.2z"/>
	<path class="st5" d="M80.9,377.8c7.7,5.5,16.7,8.8,26.1,9.6c15.5,1.2,37.9-3.9,47.6-2.1c9.7,1.7,4.9-5.2,4.9-5.2
		s-26.3,1.7-36.2-3.7s-18-10.1-25.6-8.2S80.4,373.6,80.9,377.8z"/>
	<path class="st3" d="M218.8,27.7c18.7-4,74.2-15.7,95.5-18.3h1.9c6.1,0.5,12.1,2.4,17.2,5.7c1.6,1.1,3.5,1.7,5.4,1.6
		c4.4,0,12.9,1.4,20.7,10.3c11.3,12.7,33.1,35.9,33.1,38c0,2.1-3.7,9.2-12.9,7.2c-13.6-2.9-7,9.2-11,10.9c-4,1.7-22,2.7-25.8-0.5
		l-0.2-0.2c-5.9-6.1-14.5-2.2-15.8,6.2c-0.2,1.5-2.2,1.9-2.8,2.3c-3.5,3.2-19.4,1.5-22.8-4.7c-1.9-3.5-5.1-2.5-7.6-1.1
		c-2.4,1.5-5.4,1.9-8.2,1.1L273.6,83c-3.2-0.9-5.7-3.2-6.8-6.3l-3.5-9.7c-0.8-2.2-2.4-4.1-4.4-5.3l-11.8-7c-1.7-1-3.6-1.5-5.6-1.4
		l-16.1,0.4c-2.9,0.1-5.7-1-7.7-3.1l-4.4-4.5c-2.5-2.6-3.5-6.2-2.6-9.7l0.3-1.2C212,31.4,215,28.6,218.8,27.7z"/>
	<path class="st4" d="M323,38.7c0,0,16.5,29.4,21.9,40.6c5.4,11.2,21.4,1.4,24,2.1c2.6,0.7-0.4,3.3-2,4c-1.6,0.7-21.2-0.9-22.3-0.4
		c-1.1,0.5-8.3,21.3-14.1,21.5c-5.8,0.2-17.4,2.9-19.8,3.1s-1.8-6.5,0.5-6.5s5.3-0.2,11.4-6s5.3-13.8,5-19.2
		C327.2,72.4,323,38.7,323,38.7z"/>
	<path class="st4" d="M265.4,83.7c0,0,0.6,14.7-3.2,19.1c-3.8,4.4-3,8.6-0.8,7.2c2.1-1.3,14.6-22.1,14.7-23.9
		C276.2,84.5,265.4,83.7,265.4,83.7z"/>
	<path class="st5" d="M246.3,57c6.6,11.5,17,10.7,17,10.7c0,15.8,4.8,25.5,7.4,26c2.7,0.5,4.8-8.3,7.2-8.6c2.4-0.3,1.9,3.9,5,6.1
		c3.1,2.2,8.3,1.6,11.1,1.3c2.9-0.3,4.7-13-0.3-8.5c-5,4.5-19.3-2.2-23.8-3.6c-4.5-1.3-1.6-22-4-19.2S250.8,51.3,246.4,49
		c-4.4-2.3-4.7,3.6-18.7,2.5c-14-1-15.2-18-15.2-18s-11.9,0.7-10.5,14.3s13.3,4.5,15,6.7c1.7,2.2,0.7,11.3,14.9,10.2
		C246.1,63.6,246.3,57,246.3,57z"/>
	<path class="st5" d="M297.2,86.8c10.1,13.7,22,8.1,25.4,7.8s4.6-5.8,1.5-3.4c-3.1,2.4-18.7-3.1-22.6-7.5c-3.9-4.5-3-38.9-4.2-44.3
		c-1.2-5.4-8.8-3-8.8-3s5.4,2.8,4.5,15.6C292.2,64.9,295.3,84.3,297.2,86.8z"/>
	<path class="st5" d="M346.9,32.5c0,0,26,36,26.4,37.4c0.4,1.4,18-1,18.8-4.5c0.8-3.5,1.8,3,1,4.7s-17.1,5.2-19.1,4.2
		C372.1,73.3,352.1,42.7,346.9,32.5z"/>
	<path class="st5" d="M236.9,100.9c0,0,21.1-0.8,26.6,8.6s-15.4,0.7-18.6-0.9C241.8,106.9,234.5,105.6,236.9,100.9z"/>
	<path class="st7" d="M318.6,276.9c12.2-5.8,22.1-5.1,30,0c7.9,5.1,10.3,14,7.6,15.4c-2.8,1.4-30.7-0.7-37.2-6.5
		C312.3,280,318.6,276.9,318.6,276.9z"/>
	<path class="st7" d="M438.3,261.3c0,0,47.8,4.8,57.6,16v22.3C495.8,299.7,470.5,271.9,438.3,261.3z"/>
	<path class="st5" d="M19,352.3c0,0-5-6.2,0.9-11.8c0,0-1.2,5.6,6.8,11.1"/>
	<path class="st7" d="M296.7,404c0,0,19.5-12.9,27.4-12.9s9,8,3.1,11.4c-5.9,3.5-24.9,4.2-24.6,5.9C303,410.2,293.7,412.3,296.7,404
		z"/>
	<path class="st6" d="M376.7,455.1c-86.2,36.1-193.1-10.6-193.1-10.6s98.5,58.1,194.6,12.6C378.3,457.2,390.6,449.4,376.7,455.1z"/>
	<path class="st7" d="M126.1,274.4c1.3,3.1-4.1-35.9-22.1-48.7c-38.4-27.1-29.1-48.7-29.1-48.7s-15.6,22.4,10.3,41.6
		C108.9,236.1,110.3,236.6,126.1,274.4z"/>
	<path class="st7" d="M168.1,115.7c7.1-9.4,18.3-22,18.3-23.4c0-1.3-10.9-3.3-2.1-5.9s-0.5-14.9-0.5-14.9s-6.6-9.8-5.2-7.1
		c1.4,2.7,0.6,18.5-4.9,25.5C168.1,96.9,158.7,128.1,168.1,115.7z"/>
	<path class="st5" d="M128.8,328.1c-4.8-52.8-16.1-77.9-28.4-83.5c-7.3-3.4-13.7-8.6-18.5-15.1c0,0-30.2,100.1-9,114.6
		s43.7,24.2,59,22.8S128.8,328.1,128.8,328.1z"/>
	<path class="st7" d="M268.2,28.8c3.1-4.8,8.8-7.2,14.4-6.1c9.9,1.5,19-2.4,13.5,3.5S275.2,37.2,268.2,28.8z"/>
	<path class="st7" d="M332.1,42.8c0,0,14.6,31.4,23.9,30.8c9.3-0.6,16,0.6,13.1,4.4c-3,3.8-6.9,4.1-11,2.5
		c-4.1-1.5-10.4,1.5-12.4-2.9C343.6,73.3,321.1,33.5,332.1,42.8z"/>
	<path class="st3" d="M201.7,290.8c0,0-27.9,35.6-13.7,32.2c14.2-3.4,20-26.4,31.7-21.5C231.5,306.4,232.6,279.5,201.7,290.8z"/>
	<path class="st6" d="M200.2,318.8c0,0,1.1-14.7,23.4-21.7s99.9,10.6,140.4,25.4c37.7,13.7,47.2,5,49.5,2c2.2-3-1.9,43.5-18.3,26.7
		c-16.3-16.7-97.7-28.2-118.8-21.5S195.7,343.6,200.2,318.8z"/>
	<path class="st4" d="M493.7,469l6.1-2.1v32.8h-48.6c0,0-7.4-9.5-6.6-14.3s11.9-2.4,11.9-2.4"/>
	<path class="st4" d="M373.5,91.6c-3.1,1.1-5.9,2.9-8.2,5.3l4.5-8.8c0,0,0.9,3.2,3.8,3.1"/>
	<path class="st6" d="M358.4,387.8c-20.6,28.5-37.7,36.4-64.6,41.7c-26.9,5.3-77.4-7.4-77.4-7.4s123.1,1.6,139.5-33.7"/>
	<path class="st3" d="M295.1,12.4c0,0-55.6,9.5-66.3,9.2C218.1,21.3,181.3,38,181.3,38"/>
	<path class="st3" d="M313.2,12.2c0,0-35.9,3.3-46.6,3c-10.7-0.3-48.6,8.5-48.6,8.5"/>
	<path class="st7" d="M329.1,13.2c-11.4-5.9-28.3-0.7-28.3-0.7s7.2,0.2,15.2,10.3c0,0,1.2-9.3,14.2-7.1
		C330.2,15.6,332.8,15.1,329.1,13.2z"/>
	<path class="st7" d="M193.7,317.6c5.4-6,5.2-15.9,5.2-15.9s2.3,4.2,8.1,1.7"/>
	<path class="st3" d="M298.1,457.7c-0.1-1.4-6.6,0.8-5.8-1.6c0.8-2.4-4-3.7-7.1-2.3c-3.2,1.3-24.2-3-29.2-3.8s-11.7,9.3-11.7,9.3
		s6.6,6.6,21.2,7.2S299.7,472.5,298.1,457.7z"/>
	
		<ellipse transform="matrix(0.8662 -0.4997 0.4997 0.8662 -112.2999 216.4423)" class="st7" cx="348" cy="317.9" rx="6.8" ry="3.8"/>
	<path class="workoutlog3" d="M404.9,363.1c-11.5,4.5-37.4-15.4-37.4-15.4l-8,28.9c0,0,45.4-13.9,42.4-5.5
		C401.9,371.1,417,358.4,404.9,363.1z"/>
	<path class="st5" d="M325.1,90.6c0,0,1.5,0.2,2.6-5.4c0,0-0.1,6.2-3,8.3"/>
	<path class="st3" d="M427.1,450.5c0,0-7.3-2.1-3.6,11.9c7.1,26,15.4,36.9,15.4,36.9l8.9-0.4C447.9,499,430.3,477.7,427.1,450.5z"/>
	<path class="st3" d="M434.2,490.6c0,0-0.3,0.3,4.1,9.1h10.3l-1.7-1.7L434.2,490.6z"/>
</g>
</svg>
